<svg width="143" height="22" viewBox="0 0 143 22" fill="none" xmlns="http://www.w3.org/2000/svg">
<g clip-path="url(#clip0_11_6410)">
<path fill-rule="evenodd" clip-rule="evenodd" d="M137.758 16.4585V11.4724H135.608V11.6576C135.57 13.6811 135.256 15.136 134.866 16.4585H137.758ZM141.58 16.4585H143L142.912 22H139.392V19.6856H133.634L133.571 22H130.026V16.4585H131.258C131.874 14.5938 132.176 12.7818 132.176 8.84045V8.28511H141.58V16.4585ZM70.2114 7.5841C67.6343 7.5841 66.4147 6.43344 66.1129 4.43632L69.017 4C69.1554 4.75386 69.5073 5.22993 70.2114 5.22993C70.9155 5.22993 71.2674 4.75386 71.4056 4L74.3097 4.43632C74.0081 6.43344 72.7759 7.5841 70.2114 7.5841ZM57.1496 16.5378C58.5325 16.5378 59.4124 15.3991 59.4124 13.9985C59.4124 12.6243 58.4445 11.4591 57.1118 11.4591C55.7291 11.4591 54.8492 12.5981 54.8492 13.9985C54.8492 15.3729 55.8045 16.5378 57.1496 16.5378ZM57.1496 8.0338C60.6067 8.0338 63.1084 10.7186 63.1084 13.9985C63.1084 17.2389 60.594 19.9632 57.1118 19.9632C53.6421 19.9632 51.1403 17.2786 51.1403 13.9985C51.1403 10.7583 53.6674 8.0338 57.1496 8.0338ZM122.697 16.5908C123.917 16.5908 124.897 15.5194 124.897 13.9722C124.897 12.4645 123.917 11.38 122.697 11.38C121.453 11.38 120.472 12.4378 120.472 14.0117C120.472 15.5194 121.453 16.5908 122.697 16.5908ZM124.822 8.28504H128.618V19.6855H124.822V18.1647C124.08 19.1168 123.162 19.9369 121.541 19.9369C118.951 19.9369 116.726 17.6884 116.726 13.9986C116.726 10.2955 118.951 8.03368 121.516 8.03368C123.162 8.03368 124.118 8.81419 124.822 9.67374V8.28504ZM68.3885 14.025L72.0091 8.28504H75.5166V19.6855H71.8329V15.9691C71.8329 15.255 71.8329 14.5937 71.8456 13.9455L68.2251 19.6855H64.7176V8.28504H68.4012V11.9486C68.4012 12.5173 68.4012 13.3373 68.3885 14.025ZM105.826 10.4805L105.851 8.28509H115.179V19.6856H111.37V11.4724H109.183V11.8297C109.07 18.7201 107.611 19.831 105.311 19.831C104.946 19.831 104.23 19.7648 103.752 19.6856H99.2389L96.247 14.8185V19.6856H92.4503V8.28509H96.247V12.6759L99.1509 8.28509H103.538L99.6663 13.4695L103.639 19.5532L103.815 16.0484C104.23 16.1015 104.33 16.1015 104.431 16.1015C105.11 16.1015 105.814 15.5856 105.826 10.4805ZM85.4229 16.1147C86.7556 16.1147 87.6733 15.5063 88.4399 14.3425L91.3693 16.5907C89.9737 18.5745 88.2136 19.9632 85.1462 19.9632C81.073 19.9632 77.9555 16.7759 77.9555 12.2792C77.9555 8.08669 81.0481 4.63493 85.3349 4.63493C87.9873 4.63493 89.9232 5.85154 91.2937 7.91482L88.4147 10.1233C87.6479 8.99931 86.7302 8.47017 85.5107 8.47017C83.4619 8.47017 82.0412 10.1631 82.0412 12.2792C82.0412 14.607 83.5245 16.1147 85.4229 16.1147ZM45.1815 4.88616H47.6833L50.3735 19.6855H46.5644L45.3324 12.4643L41.9005 20.1749H41.4604L38.0158 12.5307L36.784 19.6855H33L35.6903 4.88616H38.1792C38.1792 4.88616 40.3415 9.77946 40.7692 10.7185C41.1966 11.6576 41.6867 12.8611 41.6867 12.8611C41.6867 12.8611 42.3152 11.3138 42.6295 10.6526C42.944 9.9913 45.1815 4.88616 45.1815 4.88616Z" fill="#2855AF"/>
<path fill-rule="evenodd" clip-rule="evenodd" d="M4 21C7.39552 21 9.96271 16.3698 12.2642 11.3147C13.3719 8.86393 14.4047 6.29608 15.4376 4.11911C16.5719 1.70435 17.7354 0 19.159 0C20.3657 0 21.5013 1.02066 22.6315 2.61993C24.9747 5.94031 27 11.5633 27 15.2513C27 18.3407 25.4817 21 22.3701 21H4Z" fill="#64CDFF"/>
<path fill-rule="evenodd" clip-rule="evenodd" d="M12 11.4335C9.66481 6.56909 8.60752 3 6.54207 3C5.25855 3 3.8131 4.39064 2.50469 6.66952C1.10297 9.08776 0 12.5 0 16.1718C0 19.0712 1.37336 21 3.72586 21C7.12462 21 9.69577 16.4266 12 11.4335Z" fill="#2855AF"/>
</g>
<defs>
<clipPath id="clip0_11_6410">
<rect width="143" height="22" fill="white"/>
</clipPath>
</defs>
</svg>
