<svg width="110" height="110" viewBox="0 0 110 110" fill="none" xmlns="http://www.w3.org/2000/svg">
<g clip-path="url(#clip0_11_6066)">
<path d="M10.5137 63.674C5.55749 43.9216 3.0794 34.0455 7.67827 26.3787C12.2771 18.7119 22.1569 16.2486 41.9168 11.3219L45.4098 10.451C65.1697 5.52433 75.0494 3.06103 82.7278 7.66676C90.406 12.2725 92.8841 22.1486 97.8403 41.9011L98.7165 45.3928C103.673 65.1453 106.151 75.0213 101.552 82.6882C96.953 90.355 87.0733 92.8183 67.3134 97.7449L63.8204 98.6159C44.0605 103.543 34.1807 106.006 26.5025 101.4C18.8242 96.7943 16.3461 86.9182 11.3899 67.1658L10.5137 63.674Z" fill="url(#paint0_linear_11_6066)"/>
<path d="M72.0156 25.6709L24.3949 59.1603C24.3666 59.1801 24.3398 59.2021 24.3147 59.226C23.9478 59.5741 21.4206 62.1378 26.0373 62.7203L26.0845 62.7254L39.654 63.6393C39.7576 63.6465 39.8615 63.631 39.9584 63.5939C40.0553 63.5568 40.143 63.4991 40.2152 63.4247L66.494 36.2889C66.5585 36.2224 66.6355 36.1692 66.7206 36.1325C67.1359 35.953 68.3497 35.5082 67.8112 36.7038C67.2031 38.0602 50.7021 62.3677 48.8703 65.064C48.7648 65.2198 48.723 65.4099 48.7536 65.5955L50.7958 78.0972C50.827 78.2219 50.8869 78.3377 50.9707 78.4354C51.0546 78.533 51.1601 78.6099 51.2789 78.6598C51.4432 78.7136 51.6205 78.7132 51.7846 78.6589C51.9487 78.6045 52.0909 78.499 52.1903 78.3579L57.9818 69.8507C58.0733 69.7163 58.2081 69.6172 58.3639 69.5698C58.5197 69.5224 58.6871 69.5296 58.8383 69.5901L74.2165 75.7671L74.2657 75.7849C74.6293 75.9003 78.5268 77.0259 78.4032 72.3728L76.6996 27.5426C76.6783 27.4045 76.4278 25.8912 75.1447 25.2799C73.7982 24.6422 72.3337 25.4988 72.1086 25.608C72.076 25.6265 72.0449 25.6475 72.0156 25.6709Z" fill="white"/>
</g>
<defs>
<linearGradient id="paint0_linear_11_6066" x1="43.6269" y1="10.8955" x2="65.2277" y2="97.5313" gradientUnits="userSpaceOnUse">
<stop stop-color="#2AABEE"/>
<stop offset="1" stop-color="#229ED9"/>
</linearGradient>
<clipPath id="clip0_11_6066">
<rect width="90" height="90" fill="white" transform="matrix(0.970296 -0.241922 0.243373 0.969933 0 21.7729)"/>
</clipPath>
</defs>
</svg>
