<svg width="65" height="22" viewBox="0 0 65 22" fill="none" xmlns="http://www.w3.org/2000/svg">
<path d="M0 2.00293H5.95702C6.49857 2.00293 8.12321 1.81546 8.84527 4.44003C9.38682 6.12726 10.1089 8.75183 11.192 12.6887H11.553C12.6361 8.56436 13.5387 5.75232 13.8997 4.44003C14.6218 1.81546 16.4269 2.00293 17.149 2.00293H22.745V20H16.9685V9.31424H16.6075L13.5387 20H9.2063L6.13754 9.31424H5.59599V20H0M25.0917 2.00293H30.8682V12.6887H31.4097L35.2006 3.87762C35.9226 2.1904 37.5473 2.00293 37.5473 2.00293H42.9628V20H37.1862V9.31424H36.8252L33.0344 18.1253C32.3123 19.8125 30.5072 20 30.5072 20H25.0917M50.7249 14.5634V20H45.3095V10.6265H63C62.2779 12.8762 59.7507 14.5634 56.8625 14.5634" fill="#4DB45E"/>
<path d="M63.8606 9C64.6002 5.85 62.3813 2 57.5737 2H45C45.3698 5.675 48.6982 9 52.2114 9" fill="url(#paint0_linear_11_6336)"/>
<defs>
<linearGradient id="paint0_linear_11_6336" x1="61.6417" y1="-0.275" x2="46.8491" y2="-0.275" gradientUnits="userSpaceOnUse">
<stop stop-color="#1F5CD7"/>
<stop offset="1" stop-color="#02AEFF"/>
</linearGradient>
</defs>
</svg>
