<svg width="98" height="16" viewBox="0 0 98 16" fill="none" xmlns="http://www.w3.org/2000/svg">
<path d="M0 14.9899H2.30486V2.01195H10.7373V15H13V0H0V14.9899Z" fill="#FF0001"/>
<path d="M42.6606 1.05372C42.5166 0.739899 42.2825 0.47343 41.9866 0.286458C41.6907 0.0994864 41.3456 0 40.9931 0C40.6405 0 40.2954 0.0994864 39.9996 0.286458C39.7037 0.47343 39.4696 0.739899 39.3255 1.05372L33.8964 12.9545H32V15H50V12.9545H48.1036L42.6606 1.05372ZM36.3613 12.9545L41 2.56837L45.6352 12.9545H36.3613Z" fill="#FF0001"/>
<path d="M73.4966 3.12425e-05C73.1536 0.000191996 72.8181 0.101272 72.5322 0.290656C72.2463 0.480039 72.0226 0.749337 71.889 1.06494L66.0575 14.8614L66 15H68.4097L73.4865 2.69779L78.5632 14.9391L78.5869 15H81L75.111 1.06494C74.9777 0.747743 74.7531 0.47722 74.4657 0.287644C74.1783 0.0980671 73.841 -0.00203126 73.4966 3.12425e-05Z" fill="#FF0001"/>
<path d="M94.835 0L86.1785 11.7782V0H84V15H86.1279L94.8215 3.17106V15H97V0H94.835Z" fill="#FF0001"/>
<path d="M63.23 1.94115C61.776 0.68867 59.9209 -0.00013381 58.0021 3.74713e-08C56.4193 -0.000153145 54.872 0.469352 53.5559 1.34912C52.2398 2.22889 51.2142 3.47939 50.6086 4.94243C50.0031 6.40547 49.845 8.01531 50.1541 9.5683C50.4633 11.1213 51.226 12.5476 52.3456 13.6669C53.2754 14.5936 54.4189 15.2772 55.6751 15.6574C56.9314 16.0375 58.2618 16.1025 59.5492 15.8466C60.8365 15.5907 62.041 15.0219 63.0566 14.1902C64.0722 13.3585 64.8676 12.2895 65.3726 11.0776L65.4309 10.9404H63.0312L63.0004 10.9884C62.486 11.8542 61.7554 12.5712 60.8803 13.0691C60.0052 13.5669 59.0157 13.8285 58.009 13.8281C56.6112 13.8265 55.2605 13.3224 54.2033 12.4076C53.1461 11.4929 52.4527 10.2284 52.2497 8.84492H65.9623V8.75575C65.9863 8.51225 66 8.25503 66 8.00467C65.9994 7.61202 65.9696 7.21996 65.9109 6.83175C65.632 4.93283 64.6806 3.19728 63.23 1.94115ZM54.3168 3.50847C55.0863 2.88059 56.0034 2.45981 56.981 2.28605C57.9587 2.1123 58.9645 2.19133 59.9031 2.51565C60.8417 2.83997 61.6818 3.39883 62.3439 4.13919C63.0059 4.87956 63.4679 5.77687 63.686 6.74601H52.3182C52.6019 5.47451 53.3031 4.33472 54.31 3.50847H54.3168Z" fill="#FF0001"/>
<path d="M24 0C22.4178 0 20.871 0.469192 19.5554 1.34824C18.2398 2.22729 17.2145 3.47672 16.609 4.93853C16.0035 6.40034 15.845 8.00887 16.1537 9.56072C16.4624 11.1126 17.2243 12.538 18.3431 13.6569C19.462 14.7757 20.8874 15.5376 22.4393 15.8463C23.9911 16.155 25.5997 15.9965 27.0615 15.391C28.5233 14.7855 29.7727 13.7602 30.6518 12.4446C31.5308 11.129 32 9.58225 32 8C31.9973 5.8791 31.1536 3.84585 29.6539 2.34615C28.1541 0.846449 26.1209 0.00272085 24 0ZM29.8269 8C29.8269 9.15245 29.4852 10.279 28.8449 11.2373C28.2046 12.1955 27.2946 12.9423 26.2299 13.3834C25.1651 13.8244 23.9935 13.9398 22.8632 13.7149C21.7329 13.4901 20.6947 12.9352 19.8798 12.1202C19.0649 11.3053 18.5099 10.2671 18.2851 9.13677C18.0602 8.00646 18.1756 6.83487 18.6166 5.77014C19.0577 4.70541 19.8045 3.79537 20.7627 3.1551C21.721 2.51483 22.8475 2.17309 24 2.17309C25.5454 2.17309 27.0275 2.787 28.1202 3.87975C29.213 4.97251 29.8269 6.45461 29.8269 8Z" fill="#FF0001"/>
<path d="M31.988 6.76097C31.7377 5.05765 30.9446 3.48058 29.7267 2.26414C28.5088 1.04769 26.931 0.256799 25.2279 0.00899521C25.0751 -0.0108955 24.9198 0.00229119 24.7725 0.0476623C24.6253 0.0930335 24.4895 0.16953 24.3743 0.27197C24.2176 0.408356 24.1031 0.586739 24.0444 0.786078C23.9857 0.985417 23.9852 1.19739 24.043 1.39701C24.1008 1.59662 24.2144 1.77553 24.3705 1.91265C24.5266 2.04976 24.7187 2.13935 24.924 2.17086C26.1624 2.34989 27.3097 2.92442 28.1951 3.80882C29.0804 4.69321 29.6563 5.84012 29.837 7.07859C29.8691 7.28372 29.959 7.47543 30.0963 7.63115C30.2336 7.78686 30.4125 7.90009 30.6119 7.95751C30.8114 8.01493 31.0231 8.01414 31.2221 7.95523C31.4212 7.89633 31.5992 7.78176 31.7353 7.62503C31.8377 7.50805 31.9134 7.37013 31.957 7.2209C32.0007 7.07167 32.0112 6.91471 31.988 6.76097Z" fill="black"/>
</svg>
