<svg width="109" height="22" viewBox="0 0 109 22" fill="none" xmlns="http://www.w3.org/2000/svg">
<path d="M16.5196 14.1301C16.8398 14.1301 17 14.5611 17 15.423C16.9647 16.0359 16.7775 16.6286 16.4574 17.1422C16.0672 17.8283 15.5765 18.4451 15.0031 18.969C14.4065 19.5224 13.7368 19.9814 13.0151 20.3323C12.3491 20.6728 11.6204 20.8552 10.8803 20.8665C9.93747 20.8665 9.30596 19.9952 8.9858 18.2524C8.52457 19.0462 7.89803 19.7189 7.15342 20.2198C6.24543 20.7794 5.20216 21.0484 4.15144 20.9929C3.59254 21.0184 3.0346 20.921 2.51331 20.7073C1.99188 20.4934 1.51839 20.1682 1.12273 19.7513C0.751875 19.3607 0.461059 18.8933 0.268329 18.3793C0.0755994 17.8652 -0.0150482 17.3152 0.00203438 16.7628C0.00203438 13.5772 1.00715 11.0663 3.01738 9.22978C3.71019 8.5623 4.52189 8.04637 5.40563 7.71212C6.16167 7.46538 6.94898 7.34252 7.74057 7.34643C8.43434 7.32296 9.12274 7.48406 9.74184 7.81484C9.99092 7.27181 10.2754 7 10.5957 7C10.9313 7.01174 11.2615 7.09346 11.5668 7.24037C11.8722 7.38772 12.1468 7.59707 12.3746 7.85714C12.8418 8.24935 13.1424 8.82034 13.2108 9.44552C12.8905 10.2088 12.5251 10.9503 12.1167 11.6659C11.9524 12.8665 11.881 14.0789 11.9032 15.2919C11.9032 16.8532 12.09 17.6341 12.4636 17.6341C12.9261 17.6341 14.0469 16.6596 15.8258 14.7109C16.146 14.3237 16.3773 14.1301 16.5196 14.1301ZM3.92468 15.8349C3.92468 17.2779 4.43165 17.9994 5.44558 17.9994C6.53074 17.9807 7.42908 17.3717 8.14077 16.1725C8.41436 15.7008 8.62101 15.1892 8.7545 14.6544C8.72516 12.8395 8.90439 11.0275 9.28819 9.25774C7.84761 9.55751 6.53211 10.3242 5.52576 11.4501C4.99482 12.032 4.57974 12.7196 4.30477 13.4725C4.02979 14.2254 3.90058 15.029 3.92468 15.8349Z" fill="#7A8CA7"/>
<path d="M28.5939 12.3053C28.5939 11.7013 28.2474 11.3995 27.5543 11.3995C27.0799 11.3995 26.5509 11.8523 25.9672 12.7584C25.3865 13.6657 24.9613 14.6624 24.7085 15.7081V15.7623C24.7129 16.4068 24.8097 17.0475 24.9959 17.6653C25.1455 18.1051 25.2419 18.5619 25.2831 19.0243C25.2831 19.6283 24.5078 20.2325 22.9573 20.8366C22.7574 20.9193 22.5443 20.9654 22.328 20.9725C22.1134 20.9783 21.9031 20.9113 21.7316 20.783C21.5601 20.6546 21.4376 20.4726 21.384 20.2658C21.1887 19.646 21.1009 18.9982 21.1242 18.3493C21.1242 17.5427 21.1469 16.7875 21.1924 16.0841C21.238 15.3801 21.2837 14.719 21.3293 14.0996C21.3749 13.4956 21.4205 12.9608 21.4662 12.4955C21.5117 12.0307 21.5345 11.6546 21.5345 11.3676C21.5345 10.7634 21.2519 10.4616 20.6863 10.4616C20.1208 10.4616 19.4641 11.1185 18.7162 12.4323C17.9684 13.746 17.5943 14.7883 17.5943 15.5583C17.5877 16.2798 17.6843 16.9981 17.8817 17.6925C18.0314 18.1327 18.1279 18.5889 18.169 19.0514C18.169 19.6555 17.3937 20.2596 15.8433 20.8637C15.6434 20.9465 15.4302 20.9926 15.2139 20.9997C14.9994 21.0049 14.7896 20.9374 14.6182 20.809C14.447 20.6812 14.3243 20.4992 14.2699 20.2929C14.0655 19.5866 13.9776 18.8522 14.01 18.1184C13.9662 16.2556 14.0669 14.3929 14.311 12.5454C14.5921 10.8405 15.2257 9.21115 16.1715 7.76101C16.2708 7.55559 16.4207 7.37791 16.6072 7.24522C16.7937 7.11224 17.0108 7.0276 17.2386 7C17.8468 7 18.4031 7.4896 18.9078 8.4678C19.0399 8.69255 19.1499 8.92922 19.2361 9.17458C19.5863 8.68064 20.0487 8.27568 20.586 7.99249C21.123 7.70874 21.7199 7.55517 22.328 7.54382C23.1017 7.5399 23.8502 7.8151 24.4349 8.31856C24.7262 8.55187 24.96 8.84795 25.1181 9.18494C25.2761 9.52194 25.3545 9.89033 25.3469 10.2621V10.561C25.8152 9.92269 26.4284 9.40269 27.1367 9.04384C27.8451 8.68498 28.6287 8.4968 29.4239 8.49526C29.8301 8.46639 30.2381 8.51908 30.6234 8.64982C31.0088 8.78055 31.3639 8.98682 31.6677 9.25627C31.9174 9.50065 32.1142 9.79294 32.246 10.1156C32.3778 10.4379 32.4416 10.7839 32.4339 11.1318C32.4396 11.8058 32.3846 12.4794 32.2696 13.1438C32.1601 13.7479 32.0371 14.3093 31.9002 14.8288C31.7633 15.3483 31.6402 15.815 31.5308 16.2291C31.4374 16.5385 31.3823 16.8578 31.3666 17.1805C31.3666 17.4068 31.4397 17.5205 31.5854 17.5205C31.9722 17.4672 32.3293 17.2852 32.5979 17.0038C32.9993 16.6591 33.4005 16.2832 33.8018 15.8754L34.91 14.7474C35.2598 14.3939 35.4954 14.2175 35.6168 14.2175C35.8722 14.2175 36 14.5193 36 15.1235C36 16.392 35.357 17.6246 34.0709 18.8204C32.9932 19.9335 31.5203 20.5838 29.9666 20.6327C28.6533 20.6327 27.9965 19.4459 27.9965 17.0718C28.0234 16.24 28.1241 15.412 28.2976 14.5978C28.46 13.8435 28.5592 13.0763 28.5939 12.3053Z" fill="#7A8CA7"/>
<path d="M43.9539 17.5234C43.3528 18.2921 42.5839 18.915 41.7048 19.344C40.8258 19.7732 39.8599 19.9977 38.8805 20C36.9086 20 35.4315 19.4985 34.4499 18.4951C33.9654 18.0024 33.5871 17.4161 33.3386 16.7732C33.09 16.1296 32.9762 15.4425 33.0041 14.7538C32.9475 12.7455 33.6661 10.7921 35.012 9.29463C35.6736 8.54362 36.4951 7.94855 37.4164 7.55279C38.3382 7.15649 39.3368 6.96926 40.3395 7.00426C41.1596 6.97447 41.9773 7.10104 42.7493 7.37723C43.8024 7.80318 44.3289 8.20277 44.3289 8.57519C44.3289 8.87142 43.5923 9.01954 42.1202 9.01954C41.4324 9.00691 40.7498 9.13498 40.1141 9.39621C39.4787 9.65744 38.904 10.0458 38.4252 10.5375C37.9335 11.0376 37.5481 11.6317 37.2931 12.2836C37.0376 12.9359 36.9176 13.6325 36.9396 14.3318C36.9166 15.0666 37.1698 15.7837 37.6489 16.3424C37.9035 16.6196 38.2177 16.8356 38.5673 16.9752C38.9172 17.1154 39.2941 17.175 39.6706 17.1504C40.425 17.1778 41.1717 16.9933 41.8258 16.6176C41.2125 16.2186 40.7147 15.6673 40.3813 15.0182C40.0479 14.3686 39.8905 13.6446 39.9246 12.9164C39.9125 12.0488 40.2445 11.2116 40.8483 10.5858C41.1525 10.2432 41.5281 9.97069 41.9487 9.78689C42.3691 9.60294 42.8254 9.51207 43.2848 9.52099C44.275 9.52099 44.9849 9.79155 45.4129 10.3331C45.8616 10.9463 46.088 11.6926 46.0556 12.4502C46.0378 13.3922 45.8282 14.3207 45.44 15.1797H45.6005C46.3524 15.1737 47.0744 14.8855 47.6216 14.3719C47.8358 14.1591 48.0191 13.9724 48.1706 13.8126C48.2249 13.7451 48.2925 13.6892 48.3694 13.6479C48.4458 13.6069 48.5301 13.5812 48.6169 13.5728C48.8668 13.5728 48.9915 13.8691 48.9915 14.4608C49.0257 14.913 48.9564 15.367 48.7899 15.7888C48.623 16.2106 48.3623 16.5898 48.0281 16.8975C47.4425 17.4041 46.6928 17.683 45.9174 17.683C45.2591 17.6927 44.6017 17.6392 43.9539 17.5234ZM43.7129 14.4166C43.9994 13.8356 44.1517 13.199 44.1592 12.5522C44.1592 11.9604 43.9627 11.6648 43.5704 11.6648C43.4095 11.6648 43.276 11.7802 43.1686 12.0107C43.0672 12.2184 43.0124 12.4455 43.0082 12.6766C42.9984 13.002 43.056 13.3256 43.1774 13.6283C43.2985 13.9306 43.4808 14.2047 43.7129 14.4343V14.4166Z" fill="#7A8CA7"/>
<path d="M105.5 20C106.881 20 108 18.8805 108 17.5C108 16.119 106.881 15 105.5 15C104.119 15 103 16.119 103 17.5C103 18.8805 104.119 20 105.5 20Z" fill="#0079F6"/>
<path d="M76.553 14.1524C76.851 14.1524 77 14.5724 77 15.4123C76.9564 16.0053 76.7622 16.5765 76.4365 17.0694C76.0445 17.7384 75.5505 18.3389 74.9738 18.8498C74.3741 19.3896 73.7006 19.837 72.9744 20.1784C72.3305 20.5017 71.6255 20.6793 70.9077 20.6985C70.363 20.7295 69.822 20.596 69.3511 20.3153C68.9676 20.0553 68.6587 19.6961 68.4561 19.2742C68.1582 18.6656 67.9077 17.4836 67.7051 15.7274C67.5937 14.4972 67.3967 13.2769 67.1143 12.0753C66.6683 11.9934 66.249 11.8004 65.8932 11.5141C65.7277 11.3944 65.5924 11.2354 65.4998 11.051C65.4072 10.8666 65.3597 10.6621 65.3611 10.4548C65.3465 10.2632 65.3921 10.0712 65.4909 9.90745C65.5896 9.74367 65.7367 9.61576 65.911 9.54192C66.3054 9.3533 66.7369 9.25998 67.1725 9.26803C67.6219 9.26139 68.0642 9.38493 68.4473 9.62437C68.9393 9.22214 69.3535 8.72984 69.6688 8.17231C70.0058 7.44677 70.1599 6.64654 70.1158 5.84434C70.1341 5.40568 70.0571 4.96801 69.8901 4.56282C69.7229 4.15819 69.47 3.79619 69.1499 3.50253C68.5324 2.91549 67.5961 2.62141 66.3407 2.62141C65.3786 2.5888 64.4169 2.69031 63.4821 2.92256C62.8973 3.09353 62.3273 3.31335 61.7777 3.58019C61.3036 3.81766 60.8833 4.03649 60.5163 4.23768C60.2019 4.42404 59.8466 4.52738 59.4832 4.53896C59.1613 4.53896 59 4.43406 59 4.22384C59.0786 3.84166 59.2543 3.48729 59.51 3.19659C59.9335 2.64584 60.4406 2.16793 61.0132 1.78137C62.6605 0.596143 64.6336 -0.0254825 66.6494 0.0061425C68.4505 -0.0566839 70.2365 0.363335 71.829 1.22497C72.58 1.63681 73.2019 2.25547 73.6244 3.01122C74.0464 3.76697 74.2523 4.62847 74.218 5.49773C74.2847 6.90801 73.8566 8.29683 73.0101 9.41415C72.213 10.4366 71.1541 11.2138 69.9504 11.6602C70.2267 12.2865 70.4471 12.9374 70.6079 13.605C70.778 14.2984 70.9435 14.9378 71.1046 15.522C71.2339 16.0253 71.4186 16.5124 71.6546 16.9735C71.7153 17.1311 71.8177 17.2686 71.9507 17.3701C72.0833 17.4716 72.2411 17.5334 72.4061 17.5487C72.8123 17.498 73.1905 17.3102 73.4796 17.0147C73.9002 16.659 74.3162 16.2706 74.728 15.8505C75.1393 15.4305 75.5063 15.0427 75.8283 14.6868C76.1681 14.3306 76.4097 14.1524 76.553 14.1524ZM64.8779 4.29231C65.1107 4.29231 65.2267 4.59684 65.2267 5.20548C65.2286 5.79125 65.1929 6.37688 65.1196 6.95828C64.971 7.95588 64.7647 8.9433 64.502 9.91648C63.8581 12.3996 63.5357 13.8511 63.5357 14.2711V18.2972C63.5742 18.7091 63.4895 19.1229 63.2931 19.4849C63.0967 19.8464 62.7977 20.1391 62.4354 20.3245L61.4559 20.7808C61.1222 20.9312 60.7603 21.006 60.3955 20.9996C59.644 20.9996 59.2684 20.1189 59.2684 18.3567C59.3564 16.0862 59.7629 13.8401 60.4764 11.6875C61.0554 9.54051 61.9033 7.47839 62.9989 5.55223C63.2184 5.2333 63.4801 4.9474 63.7772 4.70316C64.0837 4.43547 64.4747 4.28991 64.8779 4.29231Z" fill="#0079F6"/>
<path d="M100.547 14.1278C100.849 14.1278 101 14.5477 101 15.3873C100.953 15.981 100.753 16.5516 100.42 17.0438C100.024 17.7126 99.5243 18.3128 98.9402 18.8237C98.3334 19.3627 97.6518 19.8098 96.9172 20.1512C96.1818 20.4969 95.3795 20.6744 94.5681 20.6716C94.2072 20.6912 93.8466 20.629 93.5128 20.4887C93.179 20.3494 92.8807 20.1354 92.6396 19.864C92.1902 19.3641 91.9433 18.7131 91.9471 18.0386C91.961 17.2749 92.0703 16.5158 92.2733 15.7799C92.5026 14.9522 92.7437 14.0824 92.9972 13.1694C93.6854 10.7355 94.0383 9.0294 94.0564 8.04937C94.073 7.71757 94.0174 7.3859 93.8937 7.07752C93.8362 6.96306 93.7458 6.86936 93.6341 6.80796C93.5227 6.74671 93.3953 6.72131 93.2688 6.73528C92.7257 6.73528 92.1465 7.0637 91.531 7.72095C90.8442 8.47968 90.2597 9.32662 89.7927 10.24C88.6118 12.335 87.9332 14.6788 87.8104 17.085L87.9189 17.8513C87.9559 18.1237 87.9746 18.3981 87.9732 18.6729C87.9599 18.9875 87.8762 19.2953 87.7277 19.5729C87.5798 19.85 87.371 20.09 87.1175 20.2747C86.5882 20.7429 85.9076 21.0004 85.2032 21C85.0088 21 84.8185 20.9412 84.6573 20.8315C84.496 20.7218 84.371 20.5657 84.2978 20.3844C84.0847 19.9071 83.9829 19.3877 83.999 18.8644C84.0352 18.0294 84.1722 17.2023 84.4066 16.4003C84.6782 15.36 84.9798 14.2557 85.3118 13.0875C86.1806 10.0026 86.6244 7.70275 86.6425 6.18754C86.6705 5.56614 86.5735 4.94529 86.357 4.36213C86.2662 4.14958 86.1112 3.97162 85.9133 3.85335C85.716 3.7355 85.4862 3.68329 85.2575 3.70544C84.2797 3.70544 83.3109 4.40814 82.3516 5.81368C81.3918 7.21923 80.532 9.40029 79.7715 12.3574C79.5722 13.1239 79.4215 13.7904 79.3187 14.3562L79.2917 14.8761C79.548 15.9561 79.7201 17.0548 79.8076 18.1615C79.8076 19.2206 79.4367 19.9325 78.6943 20.2972L77.7027 20.7539C77.3832 20.9004 77.0359 20.9752 76.6845 20.9728C75.7795 20.9728 75.3266 20.1014 75.3266 18.3578C75.3266 16.6149 75.7942 13.212 76.7297 8.14985C77.074 6.32444 77.2456 5.30236 77.2456 5.0836C77.2456 3.60481 76.8746 2.8657 76.1322 2.8657C75.8845 2.86373 75.6425 2.94036 75.4399 3.08446C75.2315 3.23053 75.0232 3.38267 74.8149 3.54117C74.6071 3.69909 74.3911 3.86676 74.1681 4.04289C73.9465 4.19038 73.6863 4.26644 73.4209 4.26207C73.1403 4.26207 73 4.01565 73 3.52295C73.001 3.02659 73.1294 2.53912 73.372 2.1074C73.6145 1.67553 73.9636 1.31465 74.385 1.0585C75.3262 0.37626 76.4628 0.0239874 77.6214 0.0546132C79.2507 0.0546132 80.2104 0.815322 80.5001 2.33617C80.5725 2.79245 80.6271 3.27639 80.6633 3.78729C82.003 1.26243 83.6956 0 85.7416 0C87.9836 0 89.2558 1.0767 89.5572 3.23052C89.6691 3.8906 89.7147 4.56043 89.6934 5.22968V5.44843C90.8699 3.80593 92.264 2.9844 93.8756 2.9844C96.1567 2.9844 97.2975 4.37173 97.2975 7.14598C97.2695 8.57269 97.0826 9.99164 96.7406 11.376C96.3696 12.9918 96.0981 14.1508 95.9259 14.8535C95.779 15.385 95.6925 15.9312 95.6678 16.4826C95.6678 17.1759 95.9079 17.5229 96.3877 17.5229C96.8671 17.5229 98.0123 16.5737 99.823 14.6754C100.161 14.3102 100.403 14.1278 100.547 14.1278Z" fill="#0079F6"/>
<path d="M61.3218 10.5397C61.768 10.5397 62 10.9953 62 11.8562C61.9769 12.8313 61.7741 13.7927 61.4019 14.6904C60.9736 15.7588 60.37 16.745 59.6183 17.6069C58.7663 18.5927 57.7405 19.4057 56.5942 20.0038C55.2492 20.694 53.7589 21.0349 52.2547 20.9972C50.6374 21.0168 49.073 20.4077 47.8789 19.2929C46.6272 18.1538 46.0011 16.5117 46.0011 14.3672C45.9792 12.3858 46.2805 10.4144 46.8935 8.53483C47.4207 6.90853 48.2075 5.38314 49.2216 4.01882C50.112 2.81657 51.2297 1.80936 52.5086 1.05695C53.5714 0.397696 54.7843 0.032977 56.0276 0C57.9575 0 58.9224 0.878118 58.9224 2.63393C58.9622 3.47625 58.7739 4.31322 58.3783 5.05323C58.0155 5.6609 57.6468 5.96446 57.2718 5.96446C57.0234 5.96446 56.7775 5.91035 56.5507 5.8062C56.3238 5.70149 56.1214 5.54901 55.9564 5.35876C55.8009 5.17429 55.6101 5.02363 55.3964 4.91554C55.1826 4.80759 54.9498 4.74446 54.7122 4.72966C54.2661 4.72966 53.035 4.67949 51.9959 6.38837C51.5878 6.95447 51.2855 7.5926 51.1037 8.27046C50.4944 9.86702 50.1917 11.5689 50.2119 13.2827C50.3739 14.5173 51.003 15.6378 51.9645 16.4036C52.5354 16.8085 53.2256 16.9988 53.9178 16.9414C55.1475 16.8023 56.2803 16.1934 57.0891 15.2373C57.696 14.5719 58.2312 13.9432 58.8062 13.2645C59.3816 12.5856 59.8902 11.9613 60.3273 11.3872C60.7642 10.8131 61.0945 10.5397 61.3218 10.5397Z" fill="#0079F6"/>
</svg>
