<svg width="122" height="24" viewBox="0 0 122 24" fill="none" xmlns="http://www.w3.org/2000/svg">
<path d="M81 17H91.7374V14.5433H84.6605C85.6366 10.5118 91.6154 9.62992 91.6154 5.15748C91.6154 2.76378 90.0292 1 86.6737 1C84.5995 1 82.7692 1.62992 81.5491 2.25984L82.2812 4.52756C83.3793 3.96063 84.6605 3.45669 86.2467 3.45669C87.4668 3.45669 88.626 4.02362 88.626 5.47244C88.626 8.74803 81.6101 9 81 17ZM92.0424 13.0945H98.9363V17H101.682V13.0945H104V10.7008H101.682V1H99.6684L92.0424 11.2047V13.0945ZM95.1538 10.8268L99.0584 5.40945C99.0584 5.85039 98.9363 7.23622 98.9363 8.49606V10.7638H97.1061C96.557 10.7638 95.5199 10.8268 95.1538 10.8268Z" fill="#005893"/>
<path d="M2.85835 14.75V9.69767H4.01386C5.04773 9.69767 5.89915 9.82558 6.50731 10.2093C7.11547 10.593 7.48037 11.2326 7.48037 12.2558C7.48037 13.9826 6.50731 14.75 4.1963 14.75H2.85835ZM0.060816 17.1802H4.13549C8.69669 17.1802 10.3387 15.0698 10.3387 12.1279C10.3387 10.1453 9.54811 8.80232 8.14935 8.03488C7.05466 7.39535 5.65589 7.20349 3.95304 7.20349H2.85835V3.36628H9.00077L9.73056 1H0V17.1802H0.060816ZM12.224 17.1802H14.8999L18.3664 11.936C19.0354 10.9767 19.5219 10.0174 19.826 9.50581H19.8868C19.826 10.2093 19.7652 11.1047 19.7652 12V17.1163H22.5019V5.60465H19.826L16.3595 10.8488C15.7513 11.8081 15.204 12.7674 14.8999 13.2791H14.8391C14.8999 12.5756 14.9607 11.6802 14.9607 10.7849V5.6686H12.224V17.1802ZM27.1848 17.1802H29.9823V8.03488H33.2664L33.9962 5.60465H23.8399V8.03488H27.1848V17.1802ZM34.9692 23H37.7059V17.1802C38.2533 17.3721 38.8006 17.436 39.4088 17.436C42.8753 17.436 45.1255 14.9419 45.1255 11.3605C45.1255 7.65116 43.0577 5.28488 39.1047 5.28488C37.5843 5.28488 36.1247 5.60465 34.9084 5.98837V23H34.9692ZM37.7059 14.686V7.90698C38.1316 7.77907 38.4965 7.71512 38.9831 7.71512C40.99 7.71512 42.2671 8.86628 42.2671 11.3605C42.2671 13.5988 41.2333 15.0058 39.1655 15.0058C38.6182 15.0058 38.1925 14.8779 37.7059 14.686ZM46.7675 17.1802H49.4434L52.9099 11.936C53.5789 10.9767 54.0654 10.0174 54.3695 9.50581H54.4303C54.3695 10.2093 54.3087 11.1047 54.3087 12V17.1163H57.0454V5.60465H54.3695L50.903 10.8488C50.2948 11.8081 49.7475 12.7674 49.4434 13.2791H49.3826C49.4434 12.5756 49.5042 11.6802 49.5042 10.7849V5.6686H46.7675V17.1802ZM59.2348 17.1802H62.0323V12.3837H63.6744C63.9784 12.3837 64.2825 12.7035 64.6474 13.4709L66.0462 17.1802H69.0262L67.0192 12.7674C66.6544 12 66.2895 11.5523 65.7421 11.3605V11.2965C66.6544 10.7209 66.776 9.05814 67.3233 8.22674C67.5058 7.97093 67.749 7.84302 68.1139 7.84302C68.2964 7.84302 68.5396 7.84302 68.7221 7.97093V5.47674C68.418 5.34884 67.8707 5.28488 67.5666 5.28488C66.5935 5.28488 65.9854 5.6686 65.5597 6.30814C64.6474 7.71512 64.6474 10.1453 63.3095 10.1453H62.0323V5.60465H59.2348V17.1802ZM75.2294 17.436C76.7498 17.436 78.1486 16.9244 79 16.2849L78.2094 14.3023C77.4188 14.75 76.689 15.0698 75.6551 15.0698C73.7698 15.0698 72.5535 13.7907 72.5535 11.4244C72.5535 9.31395 73.7698 7.65116 75.8376 7.65116C76.9323 7.65116 77.7229 7.97093 78.5135 8.54651V6.05233C77.9053 5.6686 76.9323 5.28488 75.5335 5.28488C72.2494 5.28488 69.6952 7.84302 69.6952 11.4884C69.6952 14.814 71.6413 17.436 75.2294 17.436Z" fill="#0BBBEF"/>
<path d="M112.5 13C115.528 13 118 10.5281 118 7.5C118 4.47191 115.528 2 112.5 2C109.472 2 107 4.47191 107 7.5C107.062 10.5281 109.472 13 112.5 13Z" stroke="#005893" stroke-width="2.14887"/>
<path d="M116 7.16129H112.839V4H112V8H116V7.16129Z" fill="#005893"/>
</svg>
