<svg width="101" height="19" viewBox="0 0 101 19" fill="none" xmlns="http://www.w3.org/2000/svg">
<path d="M20.9363 15.1193C22.044 15.1193 22.9565 14.7181 23.5348 14.1345C23.6038 14.0677 23.6932 14.0249 23.7893 14.0126C23.8855 14.0003 23.9831 14.0192 24.0672 14.0664L26.083 15.2004C26.1206 15.221 26.1531 15.2494 26.1783 15.2835C26.2035 15.3177 26.2208 15.3568 26.2289 15.3982C26.2371 15.4395 26.236 15.4822 26.2256 15.523C26.2152 15.5639 26.1958 15.6021 26.1688 15.6349C24.9857 17.1426 23.1695 18 20.889 18C16.6651 18 14 15.1686 14 11.5C14 7.83144 16.6902 5 20.6405 5C24.3615 5 27 7.88068 27 11.5C26.9992 11.854 26.971 12.2074 26.9157 12.5573C26.9053 12.6266 26.8696 12.6899 26.8153 12.7354C26.7609 12.781 26.6915 12.8057 26.6199 12.8049H17.5983C17.5744 12.8047 17.5509 12.8101 17.5296 12.8208C17.5083 12.8314 17.49 12.8469 17.4762 12.866C17.4624 12.8851 17.4535 12.9071 17.4503 12.9303C17.4471 12.9534 17.4497 12.977 17.4578 12.999C17.9592 14.485 19.2991 15.1193 20.9363 15.1193ZM23.5629 10.3399C23.5857 10.3406 23.6084 10.336 23.6291 10.3267C23.6498 10.3174 23.6681 10.3034 23.6824 10.2861C23.6967 10.2687 23.7067 10.2483 23.7116 10.2265C23.7166 10.2046 23.7163 10.182 23.7108 10.1603C23.2671 8.51938 21.9494 7.85316 20.6375 7.85316C18.9708 7.85316 17.8142 8.69463 17.3912 10.1589C17.3855 10.1807 17.385 10.2034 17.3898 10.2254C17.3946 10.2475 17.4046 10.2681 17.4189 10.2856C17.4333 10.3032 17.4516 10.3172 17.4725 10.3267C17.4934 10.3361 17.5162 10.3406 17.5391 10.3399H23.5629Z" fill="#0068FF"/>
<path d="M32.2523 8.39777V13.7575C32.2523 15.012 33.0948 15.1047 34.6996 15.0294C34.7384 15.0274 34.7771 15.0334 34.8135 15.0471C34.8499 15.0608 34.8831 15.0818 34.9112 15.1089C34.9393 15.136 34.9617 15.1686 34.9769 15.2048C34.9922 15.2409 35 15.2798 35 15.3191V17.6368C35.0004 17.7089 34.9742 17.7785 34.9266 17.8321C34.879 17.8856 34.8133 17.9193 34.7425 17.9265C30.5401 18.3394 29.1155 17.0211 29.1155 13.7619V8.39777H27.2861C27.2102 8.39777 27.1374 8.36725 27.0838 8.31292C27.0301 8.25859 27 8.1849 27 8.10806V5.64548C27 5.56864 27.0301 5.49495 27.0838 5.44062C27.1374 5.38629 27.2102 5.35576 27.2861 5.35576H29.1155V3.1829C29.1155 3.08967 29.1452 2.99893 29.2 2.92407C29.2549 2.8492 29.3321 2.79419 29.4202 2.76716L31.8832 2.01245C31.9259 1.99935 31.9711 1.99654 32.015 2.00425C32.059 2.01196 32.1006 2.02998 32.1364 2.05686C32.1723 2.08375 32.2014 2.11875 32.2215 2.15908C32.2417 2.19941 32.2522 2.24395 32.2523 2.28913V5.35576H34.7139C34.7898 5.35576 34.8626 5.38629 34.9162 5.44062C34.9699 5.49495 35 5.56864 35 5.64548V8.10806C35 8.1849 34.9699 8.25859 34.9162 8.31292C34.8626 8.36725 34.7898 8.39777 34.7139 8.39777H32.2523Z" fill="#0068FF"/>
<path d="M48 5.64103V17.3619C48 17.4386 47.9699 17.5122 47.9163 17.5665C47.8627 17.6208 47.7899 17.6513 47.7141 17.6513H45.1513C45.0755 17.6513 45.0028 17.6208 44.9492 17.5665C44.8955 17.5122 44.8654 17.4386 44.8654 17.3619V16.2043C43.9907 17.3112 42.6785 18 40.9047 18C37.6729 18 35 15.1711 35 11.5058C35 7.84049 37.6729 5 40.9075 5C42.6814 5 43.9935 5.68878 44.8683 6.79575V5.64103C44.8683 5.56427 44.8984 5.49066 44.952 5.43639C45.0056 5.38212 45.0783 5.35163 45.1542 5.35163H47.717C47.7923 5.35239 47.8643 5.38321 47.9173 5.43741C47.9703 5.4916 48 5.56477 48 5.64103ZM44.8654 11.5014C44.8654 9.43511 43.4361 8.02861 41.4879 8.02861C39.5682 8.02861 38.1346 9.43077 38.1346 11.5014C38.1346 13.5721 39.5639 14.9743 41.4879 14.9743C43.4318 14.9627 44.8654 13.5606 44.8654 11.4942V11.5014Z" fill="#0068FF"/>
<path d="M49.0007 2.10845C48.9935 1.83428 49.0399 1.5614 49.1371 1.30594C49.2344 1.05047 49.3805 0.817588 49.5668 0.621048C49.7532 0.424507 49.976 0.268291 50.2222 0.161624C50.4683 0.0549563 50.7328 0 51 0C51.2672 0 51.5317 0.0549563 51.7778 0.161624C52.024 0.268291 52.2468 0.424507 52.4332 0.621048C52.6195 0.817588 52.7656 1.05047 52.8629 1.30594C52.9601 1.5614 53.0065 1.83428 52.9993 2.10845C52.9852 2.64316 52.7684 3.15112 52.395 3.52421C52.0216 3.8973 51.5211 4.10606 51 4.10606C50.4789 4.10606 49.9784 3.8973 49.605 3.52421C49.2316 3.15112 49.0148 2.64316 49.0007 2.10845ZM49.6931 5.28078H52.3083C52.3856 5.28078 52.4598 5.31231 52.5145 5.36843C52.5691 5.42456 52.5999 5.50068 52.5999 5.58005V17.7007C52.5999 17.7801 52.5691 17.8562 52.5145 17.9123C52.4598 17.9685 52.3856 18 52.3083 18H49.6931C49.6158 18 49.5417 17.9685 49.487 17.9123C49.4323 17.8562 49.4016 17.7801 49.4016 17.7007V5.58005C49.4016 5.50068 49.4323 5.42456 49.487 5.36843C49.5417 5.31231 49.6158 5.28078 49.6931 5.28078Z" fill="#0068FF"/>
<path d="M55.2737 3.04442e-08H57.7263C57.7975 -3.51082e-05 57.8659 0.0303487 57.917 0.0847048C57.9681 0.139061 57.9979 0.213112 58 0.291146V17.7089C57.9979 17.7869 57.9681 17.8609 57.917 17.9153C57.8659 17.9697 57.7975 18 57.7263 18H55.2737C55.2025 18 55.1341 17.9697 55.083 17.9153C55.0319 17.8609 55.0021 17.7869 55 17.7089V0.291146C55.0021 0.213112 55.0319 0.139061 55.083 0.0847048C55.1341 0.0303487 55.2025 -3.51082e-05 55.2737 3.04442e-08Z" fill="#0068FF"/>
<path d="M59 11.5027C59 7.83262 61.7633 5 65.5271 5C67.8381 5 69.8582 6.15913 70.9184 7.91955C70.9388 7.95251 70.9523 7.98921 70.9582 8.02748C70.9642 8.06575 70.9623 8.10481 70.9528 8.14236C70.9433 8.17991 70.9264 8.21518 70.903 8.2461C70.8796 8.27701 70.8502 8.30294 70.8166 8.32235L68.6961 9.55392C68.6008 9.60992 68.4877 9.62776 68.3797 9.60381C68.2717 9.57987 68.1769 9.51594 68.1144 9.42497C67.5632 8.61937 66.6077 8.12095 65.4966 8.12095C63.5928 8.12095 62.1836 9.52494 62.1836 11.4955C62.1836 13.4413 63.5928 14.8453 65.4966 14.8453C66.6295 14.8453 67.5894 14.3672 68.1391 13.5631C68.2012 13.4737 68.2946 13.4108 68.4009 13.3867C68.5072 13.3625 68.6188 13.3789 68.7136 13.4327L70.8529 14.6512C70.8872 14.6706 70.9171 14.6967 70.9409 14.728C70.9647 14.7592 70.9819 14.795 70.9914 14.833C71.0009 14.8711 71.0026 14.9107 70.9963 14.9494C70.99 14.9881 70.9758 15.0252 70.9547 15.0583C70.3756 15.9695 69.5723 16.718 68.6211 17.2328C67.6698 17.7476 66.6023 18.0115 65.5198 17.9996C61.7691 18.0054 59 15.1728 59 11.5027Z" fill="black"/>
<path d="M80 5.30186V8.33694C80.0001 8.37775 79.992 8.41815 79.9762 8.45565C79.9605 8.49316 79.9375 8.52698 79.9085 8.55506C79.8796 8.58313 79.8454 8.60487 79.8079 8.61893C79.7705 8.633 79.7306 8.63909 79.6908 8.63685C78.0789 8.55887 76.2135 9.38662 76.2135 11.8999V17.7001C76.2135 17.7796 76.1826 17.8559 76.1277 17.9122C76.0727 17.9684 75.9982 18 75.9205 18H73.2931C73.2153 18 73.1408 17.9684 73.0858 17.9122C73.0309 17.8559 73 17.7796 73 17.7001V5.55379C73 5.47425 73.0309 5.39796 73.0858 5.34172C73.1408 5.28547 73.2153 5.25388 73.2931 5.25388H75.9205C75.9982 5.25388 76.0727 5.28547 76.1277 5.34172C76.1826 5.39796 76.2135 5.47425 76.2135 5.55379V7.43871C76.8187 5.8192 78.2284 5.09043 79.6908 5.00045C79.7308 4.9982 79.7707 5.00434 79.8083 5.0185C79.8458 5.03265 79.8801 5.05452 79.9091 5.08276C79.938 5.11099 79.961 5.145 79.9767 5.18268C79.9923 5.22037 80.0003 5.26092 80 5.30186Z" fill="black"/>
<path d="M100 10.2036V17.7025C100 17.7814 99.9683 17.8571 99.9118 17.9129C99.8553 17.9687 99.7786 18 99.6987 18H96.998C96.9181 18 96.8415 17.9687 96.785 17.9129C96.7285 17.8571 96.6968 17.7814 96.6968 17.7025V10.4312C96.6968 8.9436 95.9286 8.02873 94.5458 8.02873C93.0863 8.02873 92.1644 8.98971 92.1644 10.8864V17.7025C92.1644 17.7814 92.1327 17.8571 92.0762 17.9129C92.0197 17.9687 91.9431 18 91.8632 18H89.1624C89.0825 18 89.0059 17.9687 88.9494 17.9129C88.8929 17.8571 88.8612 17.7814 88.8612 17.7025V10.4312C88.8612 8.9436 88.093 8.02873 86.7102 8.02873C85.3019 8.02873 84.3002 8.98971 84.3002 10.8864V17.7025C84.3002 17.7814 84.2685 17.8571 84.212 17.9129C84.1555 17.9687 84.0789 18 83.999 18H81.3013C81.2214 18 81.1447 17.9687 81.0882 17.9129C81.0317 17.8571 81 17.7814 81 17.7025V5.65306C81 5.57416 81.0317 5.49848 81.0882 5.44269C81.1447 5.38689 81.2214 5.35555 81.3013 5.35555H84.002C84.0819 5.35555 84.1585 5.38689 84.215 5.44269C84.2715 5.49848 84.3032 5.57416 84.3032 5.65306V6.69437C85.0202 5.63224 86.2237 5.00001 87.8625 5.00001C89.4501 5.00001 90.628 5.65752 91.345 6.82081C92.1388 5.68281 93.4191 5.00001 95.1604 5.00001C98.0795 4.99406 100 7.04246 100 10.2036Z" fill="black"/>
<path d="M12.7114 5H2.24675C1.65048 5.00115 1.07902 5.23877 0.657795 5.66071C0.236572 6.08265 -1.10258e-06 6.65444 0 7.25058L0 17.7115C0 17.788 0.030406 17.8614 0.0845291 17.9155C0.138652 17.9696 0.212059 18 0.2886 18H2.89755C2.97409 18 3.0475 17.9696 3.10162 17.9155C3.15574 17.8614 3.18615 17.788 3.18615 17.7115V12.0114C3.18582 11.4144 3.00028 10.8323 2.65512 10.3451L1.5974 8.85052L10.2727 17.5225C10.2996 17.5497 10.3316 17.5714 10.3669 17.5862C10.4022 17.6009 10.4401 17.6086 10.4784 17.6086C10.5166 17.6086 10.5545 17.6009 10.5898 17.5862C10.6251 17.5714 10.6571 17.5497 10.684 17.5225L12.5253 15.6802C12.5525 15.6533 12.5742 15.6213 12.589 15.586C12.6037 15.5507 12.6114 15.5128 12.6114 15.4746C12.6114 15.4363 12.6037 15.3984 12.589 15.3631C12.5742 15.3279 12.5525 15.2959 12.5253 15.269L3.85859 6.6057L5.33911 7.65453C5.82635 7.99962 6.40866 8.18511 7.00577 8.18544H12.7114C12.7879 8.18544 12.8613 8.15504 12.9155 8.10093C12.9696 8.04682 13 7.97343 13 7.8969V5.28854C13 5.21201 12.9696 5.13862 12.9155 5.08451C12.8613 5.0304 12.7879 5 12.7114 5Z" fill="#0068FF"/>
<path d="M12.7113 0H0.288728C0.129268 0 0 0.121004 0 0.27027V2.72973C0 2.879 0.129268 3 0.288728 3H12.7113C12.8707 3 13 2.879 13 2.72973V0.27027C13 0.121004 12.8707 0 12.7113 0Z" fill="#0068FF"/>
</svg>
