<svg width="83" height="18" viewBox="0 0 83 18" fill="none" xmlns="http://www.w3.org/2000/svg">
<rect width="83" height="18" fill="white"/>
<path d="M50.5 0C43.5956 0 38 4.02689 38 9C38 13.9731 43.5956 18 50.5 18C57.4045 18 63 13.9731 63 9C63 4.02689 57.4045 0 50.5 0ZM50.5 13.8081C45.7334 13.8081 42.1667 11.2775 42.1667 9.01101C42.1667 6.7445 45.7334 4.21394 50.5 4.21394C55.2666 4.21394 58.8333 6.7445 58.8333 9.01101C58.8333 11.2775 55.2775 13.8081 50.5 13.8081Z" fill="#005BFF"/>
<path d="M9.0055 0C4.03543 0 0.0109957 4.02443 0 8.9945C0 13.9646 4.02443 17.989 8.9945 18C13.9646 18 17.989 13.9756 18 9.0055C18 4.02444 13.9756 0 9.0055 0ZM13.7996 8.9945C13.7996 11.6445 11.6555 13.7886 9.0055 13.7996C6.35553 13.7996 4.20037 11.6555 4.20037 9.0055C4.20037 6.35553 6.34453 4.20037 8.9945 4.20037C11.6445 4.20037 13.7996 6.34453 13.7996 8.9945Z" fill="#005BFF"/>
<path d="M33.9089 12.8534H26.8055L35.868 0.957745C36.1636 0.56594 35.8899 0 35.3865 0H22.3618C21.0703 0 19.9649 1.17542 20.2385 2.5032C20.4355 3.48271 21.3549 4.1466 22.3618 4.1466H28.1956L19.1221 16.0531C18.8266 16.4449 19.1002 17 19.5927 17H33.8323C34.8392 17 35.7586 16.3361 35.9556 15.3566C36.2292 14.0179 35.2004 12.8534 33.9089 12.8534Z" fill="#005BFF"/>
<path d="M82 2.07858V16.401C82 16.5315 81.9575 16.662 81.8723 16.7708C81.6702 17.0318 81.2979 17.0753 81.0425 16.8687L70.0639 7.96199V14.922C70.0639 16.0965 69.117 17.0318 67.9681 16.9992C66.8617 16.9665 66 15.9987 66 14.8677V0.599571C66 0.458195 66.0426 0.327694 66.1277 0.218944C66.3298 -0.0311829 66.7021 -0.0746852 66.9468 0.131941L77.9255 9.03862V2.13295C77.9255 1.00195 78.7872 0.0449425 79.883 0.00144226C81.0425 -0.042058 82 0.90407 82 2.07858Z" fill="#005BFF"/>
</svg>
