<svg width="150" height="22" viewBox="0 0 150 22" fill="none" xmlns="http://www.w3.org/2000/svg">
<mask id="mask0_11_6421" style="mask-type:luminance" maskUnits="userSpaceOnUse" x="0" y="0" width="22" height="22">
<path d="M0 0H22V22H0V0Z" fill="white"/>
</mask>
<g mask="url(#mask0_11_6421)">
<path d="M11 22C17.0751 22 22 17.0751 22 11C22 4.92487 17.0751 0 11 0C4.92487 0 0 4.92487 0 11C0 17.0751 4.92487 22 11 22Z" fill="#FF5226"/>
<path d="M12.3498 17.9993V6.08468H10.9912C10.0119 6.08468 9.26913 6.29834 8.76433 6.72641C8.25954 7.13889 8.00714 7.68862 8.00714 8.37634C8.00714 8.89566 8.09584 9.33856 8.27396 9.70505C8.45208 10.0715 8.71241 10.4076 9.05351 10.7133C9.39533 11.0189 9.82585 11.355 10.3458 11.7215L11.6373 12.6147L7.85137 18H5L8.60857 12.9589L10.3011 14.5169L8.96481 13.6459C8.29288 13.1969 7.65282 12.6993 7.04947 12.157C6.51439 11.6673 6.10622 11.1332 5.82426 10.553C5.54229 9.97213 5.40095 9.29256 5.40095 8.51359C5.40095 7.16931 5.86897 6.08468 6.80428 5.25971C7.75474 4.4199 9.14293 4 10.9688 4H15V17.9993H12.3498Z" fill="white"/>
</g>
<path d="M35 22C28.9317 22 24 17.0874 24 11.0198C24 4.95147 28.9317 0 35 0C41.0676 0 46 4.95147 46 11.0198C46 17.0874 41.0676 22 35 22Z" fill="#FF5226"/>
<path d="M33.084 1L21 20H26.5394L33.5202 9.04826L33.3497 8.9704L31.4144 16.8076L35.5118 17.5353L39.7232 12.2013L39.495 12.0871L38.0724 18.1458L47 16.4314L45.1788 13.4086L41.961 14.1508L42.3409 14.5911L43.8393 8.26381L40.3485 5.91191L35.7775 11.7043L36.005 11.8193L37.8825 4.22949L33.084 1Z" fill="#FFDD00"/>
<path d="M33.169 1L21 20H26.5784L33.6083 9.04826L33.4366 8.9704L31.4877 16.8076L35.6139 17.5353L39.8549 12.2013L39.6251 12.0871L38.1926 18.1458L41.8068 17.4567L44 8.26381L40.4847 5.91191L35.8815 11.7043L36.1106 11.8193L38.0013 4.22949L33.169 1Z" fill="#FFDD00"/>
<path d="M50.0007 18.036L56.85 4.00074H62.066L63.1323 12.5461L68.4166 4H73.5879V18.036H68.5305V10.5014L63.8351 18.036H58.7776L57.8032 10.4323L54.083 18.036H50.0007ZM89.1237 15.2565C89.1237 15.7318 89.1318 16.1989 89.1465 16.6578C89.1619 17.1174 89.192 17.5689 89.2375 18.013H84.5421C84.4307 17.7924 84.3397 17.5618 84.2704 17.3242C84.1779 17.0097 84.1172 16.6865 84.089 16.3595C83.6051 16.9412 82.9927 17.4231 82.2517 17.8062C81.5262 18.1744 80.49 18.3581 79.1447 18.3581C77.7839 18.3581 76.6949 18.036 75.8783 17.3934C75.0772 16.75 74.6769 15.8924 74.6769 14.8199C74.6769 13.8247 74.956 13.0593 75.5156 12.5231C76.0905 11.9719 76.982 11.5889 78.1922 11.3747C79.4017 11.1441 80.9512 11.0295 82.8414 11.0295H84.0207V10.7766C84.0207 10.2872 83.8166 9.91162 83.4083 9.6513C83 9.39097 82.2363 9.26081 81.1179 9.26081C80.0142 9.26081 78.9861 9.40659 78.0329 9.69741C77.0959 9.97261 76.3321 10.2486 75.7425 10.5245V7.44597C76.4078 7.20052 77.3 6.95581 78.4192 6.7111C79.553 6.45078 80.8454 6.32062 82.2972 6.32062C83.7637 6.32062 85.0033 6.45822 86.0167 6.73416C87.0301 6.99449 87.8012 7.44597 88.3299 8.08934C88.8593 8.7171 89.1237 9.5903 89.1237 10.7082V15.2565ZM90.6658 6.66573H95.3612L95.6329 8.61743C96.2079 7.85207 96.8953 7.29349 97.6972 6.94093C98.4984 6.58838 99.4207 6.41285 100.464 6.41285C101.644 6.41285 102.702 6.62706 103.64 7.05548C104.556 7.46667 105.331 8.14706 105.862 9.00866C106.407 9.88113 106.678 10.9842 106.678 12.3163C106.678 13.6484 106.407 14.7589 105.862 15.647C105.333 16.5202 104.592 17.1792 103.64 17.6225C102.686 18.0672 101.598 18.2889 100.373 18.2889C99.4963 18.2946 98.6265 18.1307 97.8103 17.8062C97.0238 17.47 96.3438 16.9412 95.7695 16.2219V21H90.6658V6.66499V6.66573ZM121.466 12.3163C121.466 11.1828 121.768 10.1719 122.373 9.28386C122.993 8.39578 123.87 7.6996 125.004 7.19382C126.153 6.67317 127.506 6.41285 129.064 6.41285C130.682 6.41285 132.035 6.69549 133.123 7.26225C134.227 7.82902 134.998 8.63305 135.437 9.67435C135.89 10.7157 135.951 11.9489 135.618 13.3732H126.66C126.841 14.0315 127.242 14.5291 127.862 14.866C128.497 15.188 129.434 15.3487 130.674 15.3487C131.536 15.3487 132.337 15.2721 133.078 15.1181C133.775 14.9621 134.464 14.7707 135.142 14.5447V17.2781C134.492 17.5845 133.766 17.8292 132.965 18.013C132.178 18.1967 131.143 18.2889 129.858 18.2889C127.03 18.2889 124.921 17.7608 123.53 16.7039C122.154 15.6321 121.466 14.1698 121.466 12.3163ZM136.049 6.66499H149V9.60592H144.963V18.013H139.86V9.60592H136.049V6.66499ZM107.653 6.66499H112.756V11.8105L117.588 6.66499H121.988L117.497 11.397L122.918 18.013H116.748L112.756 13.005V18.013H107.653V6.66499ZM129.087 8.98561C128.391 8.98561 127.839 9.19238 127.431 9.60592C127.023 10.0039 126.758 10.5171 126.637 11.1448H131.128C131.113 10.5171 130.946 10.0039 130.629 9.60518C130.311 9.19238 129.797 8.98561 129.087 8.98561ZM101.462 12.3163C101.462 11.397 101.213 10.6695 100.713 10.134C100.23 9.58287 99.5338 9.30692 98.6269 9.30692C97.7956 9.30692 97.0994 9.56725 96.5406 10.0879C95.981 10.5937 95.7012 11.336 95.7012 12.3163C95.7012 13.2966 95.9729 14.0545 96.5178 14.5908C97.0774 15.1114 97.7802 15.3718 98.6269 15.3718C99.5646 15.3718 100.267 15.0958 100.736 14.5447C101.22 13.9935 101.462 13.2505 101.462 12.3163ZM84.0207 13.1196H82.8641C81.7604 13.1196 80.9666 13.2125 80.4827 13.3963C80.0142 13.58 79.7799 13.9318 79.7799 14.4524C79.7799 14.8965 79.9312 15.226 80.233 15.4402C80.551 15.6395 80.9284 15.7392 81.3675 15.7392C82.0329 15.7392 82.577 15.6165 83 15.3718C83.4384 15.1114 83.7791 14.8124 84.0207 14.4755V13.1196Z" fill="black"/>
</svg>
