<svg width="127" height="36" viewBox="0 0 127 36" fill="none" xmlns="http://www.w3.org/2000/svg">
<rect x="7" y="7" width="8" height="8" rx="4" fill="#EE1750"/>
<rect x="14" width="8" height="8" rx="4" fill="#A6CE38"/>
<rect x="21" y="7" width="8" height="8" rx="4" fill="#EE1750"/>
<path d="M44.0648 14.2251C44.1297 19.9382 44.1729 20.1211 45.513 21.463C46.8532 22.8455 49.2956 23.3741 51.3707 22.7235C55.2829 21.5037 56.2772 16.5022 53.1431 13.8388C52.0623 12.9239 51.0032 12.5986 49.4253 12.7003C48.4959 12.7613 47.8691 12.9442 47.0693 13.4322L45.9669 14.0625V11.7854C45.9669 9.24397 45.8589 9 44.7133 9H44L44.0648 14.2251ZM51.1545 14.7334C52.4514 15.567 52.7756 16.1769 52.7756 17.8034C52.7756 19.0029 52.6892 19.3892 52.2785 19.9382C51.1977 21.341 49.0579 21.8086 47.6745 20.9344C46.2912 20.0805 45.5779 17.905 46.2047 16.3802C46.4641 15.7093 47.4151 14.7131 48.0204 14.4894C48.885 14.1438 50.4196 14.2658 51.1545 14.7334Z" fill="#EE1750"/>
<path d="M78.0857 13.3739C78.15 18.6826 78.15 18.7914 78.7283 20.0098C80.335 23.5126 85.2191 24.0565 87.7683 21.0106C90.1461 18.1822 88.9037 13.1781 85.5619 12.1556C83.8053 11.6334 81.7702 12.0033 80.6777 13.0476L80.185 13.5045V11.1765C80.185 8.34811 80.0351 8 78.8783 8H78L78.0857 13.3739ZM85.0906 14.0919C87.1257 15.1362 87.6612 18.1169 86.1188 19.901C83.7839 22.5988 80.185 21.0976 80.185 17.4425C80.185 15.876 80.6563 14.8316 81.6631 14.1572C82.5843 13.5262 83.9767 13.5045 85.0906 14.0919Z" fill="#EE1750"/>
<path d="M93.7106 12.1747C92.1925 12.6307 90.8696 13.8901 90.3491 15.3883C89.3298 18.3197 90.6093 21.403 93.3203 22.5756C94.2528 22.9881 94.7299 23.0533 96.0963 22.9664C98.6771 22.8144 100.542 21.5333 99.306 20.7733C99.0458 20.5996 98.6337 20.6213 97.7662 20.9036C94.9034 21.8156 92.6696 20.8385 92.1058 18.3848L91.9756 17.7986H95.9878H100V16.6477C100 14.9975 99.1759 13.4124 97.918 12.6741C96.8336 12.0444 94.9251 11.8056 93.7106 12.1747ZM96.4216 13.7598C97.2023 14.0855 97.7228 14.7369 97.9397 15.6706L98.0915 16.2786H95.142C93.2335 16.2786 92.1925 16.1917 92.1925 16.0615C92.1925 15.9312 92.3226 15.562 92.4961 15.2363C93.2769 13.7381 94.8818 13.1301 96.4216 13.7598Z" fill="#EE1750"/>
<path d="M59.5466 12.2539C57.7438 12.9921 56.5965 14.3383 56.1458 16.2056C55.4902 18.9631 57.1087 21.8943 59.731 22.7193C64.1356 24.1089 68.11 20.1138 66.7169 15.6845C66.2867 14.2514 64.9141 12.7967 63.603 12.319C62.4967 11.9282 60.448 11.8847 59.5466 12.2539ZM63.1113 14.0343C65.7336 15.4673 65.6926 19.6144 63.0498 20.8955C61.4519 21.6554 59.5466 21.1777 58.6042 19.7664C57.8667 18.6808 57.8052 16.4878 58.4608 15.4456C59.2393 14.2514 60.1407 13.7086 61.4314 13.7086C62.046 13.7086 62.804 13.8606 63.1113 14.0343Z" fill="#EE1750"/>
<path d="M68 12.1101C68 12.1979 68.7826 13.4274 69.7609 14.8545L71.5217 17.4453L69.7609 20.1019C68.7826 21.5729 68 22.8244 68 22.8902C68 22.9561 68.5 23 69.087 23C70.3913 23 70.6304 22.8024 71.913 20.6069C72.413 19.7506 72.8913 19.048 72.9783 19.048C73.0435 19.048 73.587 19.8384 74.1739 20.8045C74.7391 21.7485 75.3478 22.6487 75.5 22.7804C75.6522 22.9122 76.2826 23 76.8913 22.9561L77.9783 22.8902L76.6304 20.8923C75.8913 19.7945 75.087 18.565 74.8696 18.1259L74.4565 17.3575L75.6087 15.623C76.2391 14.6789 77.0435 13.5372 77.3913 13.0981C77.7174 12.659 78 12.2199 78 12.154C78 11.9345 76.3043 12.0003 75.7609 12.2638C75.4783 12.3955 74.7609 13.2738 74.1739 14.2398C73.587 15.1839 73.0652 15.9743 73 15.9743C72.9348 15.9743 72.4783 15.2937 71.9565 14.4813C71.4565 13.647 70.8478 12.7907 70.6087 12.5712C70.1957 12.1979 68 11.8027 68 12.1101Z" fill="#EE1750"/>
<path d="M101 18V23H101.978H102.956L103.044 20.0816C103.111 17.6122 103.178 17.0816 103.578 16.4694C104.156 15.5306 105.311 14.8367 106.244 14.8367C107 14.8367 107 14.8163 107 13.9184C107 13.0204 107 13 106.244 13C105.356 13 104.2 13.6939 103.511 14.6122L103 15.3061V14.551C103 13.6735 102.378 13 101.556 13H101V18Z" fill="#EE1750"/>
<path d="M109 18V23L110.029 22.9393L111.036 22.8785L111.143 19.9433C111.25 16.7652 111.336 16.502 112.536 15.5101C113.114 15.0243 113.5 14.8826 114.143 14.8826H115V13.9717V13.0607H114.229C113.179 13.0607 112.129 13.7085 111.464 14.7409L110.929 15.5911V14.6802C110.929 13.5061 110.757 13.2834 109.793 13.1215L109 13V18Z" fill="#EE1750"/>
<path d="M115 13.1477C115 13.23 116.037 15.5147 117.312 18.2317L119.603 23.1716L119.02 24.2213C118.436 25.2916 118.004 25.6209 116.923 25.8474C116.599 25.9091 116.189 26.1973 115.994 26.4854L115.648 27H117.269C119.754 27 119.884 26.8353 122.65 20.5164C123.882 17.6759 125.136 14.8355 125.438 14.1768L126 13.0036H125.028C124.401 13.0036 123.947 13.1271 123.709 13.3741C123.493 13.5593 122.694 15.35 121.937 17.3054C120.9 19.9606 120.489 20.7839 120.381 20.4958C118.695 16.4821 117.291 13.4564 117.01 13.2506C116.621 12.983 115 12.9007 115 13.1477Z" fill="#EE1750"/>
<rect y="14" width="8" height="8" rx="4" fill="#EE1750"/>
<rect x="14" y="14" width="8" height="8" rx="4" fill="#EE1750"/>
<rect x="28" y="14" width="8" height="8" rx="4" fill="#EE1750"/>
<rect x="7" y="21" width="8" height="8" rx="4" fill="#EE1750"/>
<rect x="21" y="21" width="8" height="8" rx="4" fill="#EE1750"/>
<rect x="14" y="28" width="8" height="8" rx="4" fill="#EE1750"/>
</svg>
