<svg width="130" height="18" viewBox="0 0 130 18" fill="none" xmlns="http://www.w3.org/2000/svg">
<path d="M11 0V17H8.02919V2.44263H2.97654V17H0V0H11Z" fill="#1928DC"/>
<path d="M15.3724 17.0199C14.539 16.22 13.9344 15.1935 13.6261 14.0549C13.1746 12.4605 12.9649 10.8018 13.0048 9.13932C12.9662 7.43462 13.1758 5.73364 13.6261 4.09485C13.932 2.92296 14.5355 1.85961 15.3724 1.01773C16.1061 0.360935 17.0398 0 18.0053 0C18.9708 0 19.9045 0.360935 20.6381 1.01773C21.4741 1.84959 22.0747 2.90658 22.3737 4.07243C22.8211 5.71188 23.0306 7.41237 22.9951 9.11693C23.0354 10.7886 22.8258 12.4566 22.3737 14.0605C22.074 15.1987 21.4722 16.2248 20.6381 17.0199C19.8924 17.6539 18.9608 18 17.9999 18C17.0391 18 16.1075 17.6539 15.3617 17.0199H15.3724ZM16.0581 12.6144C16.1674 13.3616 16.4346 14.0739 16.8402 14.6995C16.9676 14.9024 17.1397 15.0703 17.3419 15.1893C17.5442 15.3082 17.7707 15.3748 18.0026 15.3833C18.6883 15.3833 19.2293 14.862 19.6096 13.8083C20.0795 12.3028 20.2899 10.7219 20.231 9.13932C20.2478 7.92635 20.1582 6.71434 19.9632 5.51853C19.8447 4.74073 19.571 3.99782 19.1596 3.33819C19.0369 3.12479 18.8654 2.94654 18.6607 2.81939C18.456 2.69224 18.2244 2.62014 17.9865 2.60954C17.753 2.6232 17.5262 2.69683 17.3263 2.8239C17.1264 2.95098 16.9595 3.12761 16.8402 3.33819C16.4344 4.00469 16.1679 4.75343 16.0581 5.53535C15.8543 6.72821 15.761 7.9389 15.7796 9.15056C15.7615 10.312 15.8549 11.4724 16.0581 12.6144Z" fill="#1928DC"/>
<path d="M32.1293 0V6.51911H30.6137C30.061 6.54203 29.5103 6.43921 29.0041 6.21857C28.604 6.01065 28.2979 5.66138 28.1467 5.24043C27.9431 4.65758 27.8512 4.04236 27.8757 3.42623V0H25.0105V3.42623C24.9243 4.90884 25.3709 6.3739 26.2717 7.56285C27.1124 8.56466 28.368 9.06557 30.0384 9.06557H32.1293V17H35V0H32.1293Z" fill="#1928DC"/>
<path d="M47 2.44263H43.4841V17H40.5101V2.44263H37V0H47V2.44263Z" fill="#1928DC"/>
<path d="M50.9883 0.00366116H53.3825C54.3664 -0.0330106 55.3402 0.206476 56.1809 0.692039C56.9208 1.16316 57.495 1.8328 57.8308 2.61512C58.2444 3.58437 58.5048 4.60605 58.6036 5.64724L60 17H57.0116L56.0362 9.06728H50.9883V17H48V0.00366116H50.9883ZM50.9883 6.62517H55.7424L55.6037 5.64724C55.5513 5.01992 55.4156 4.40138 55.2 3.80612C55.0474 3.40619 54.7515 3.06972 54.3634 2.8555C53.86 2.6293 53.3047 2.526 52.7479 2.55502H50.9883V6.62517Z" fill="#1928DC"/>
<path d="M64.039 0.00144258C64.9575 -0.0212003 65.8636 0.223109 66.6534 0.706302C67.4276 1.21306 68.0304 1.95352 68.3801 2.82634C68.8212 3.93667 69.0312 5.12981 68.9963 6.32877C69.022 7.46663 68.8249 8.59821 68.4173 9.65636C68.1132 10.4632 67.6266 11.1842 66.9985 11.76C66.5633 12.1789 65.9996 12.4283 65.4045 12.4648C65.0981 12.4851 64.7907 12.4354 64.5053 12.3192C64.2195 12.2029 63.9622 12.0232 63.7523 11.7928V17H61V0.00144258H64.039ZM63.9168 8.82582C63.9866 9.12918 64.1267 9.41047 64.3261 9.64545C64.3914 9.72634 64.4723 9.79235 64.5637 9.83941C64.6551 9.88643 64.7553 9.91341 64.8573 9.91866C65.0976 9.90481 65.3237 9.79736 65.4895 9.61814C65.7432 9.34068 65.926 9.00269 66.0207 8.6346C66.1742 8.06928 66.244 7.4836 66.2279 6.89702C66.2279 5.30885 66.0405 4.18686 65.6651 3.5312C65.5065 3.22888 65.2695 2.97754 64.9809 2.80493C64.6919 2.63233 64.3624 2.54519 64.0284 2.55314H63.7523V7.47075C63.7472 7.92805 63.8028 8.38388 63.9168 8.82582Z" fill="#1928DC"/>
<path d="M73.3765 17.0289C72.5417 16.2302 71.937 15.2028 71.6309 14.0628C71.1776 12.4682 70.966 10.8088 71.0044 9.14551C70.9669 7.43986 71.1781 5.73819 71.6309 4.09925C71.9337 2.92571 72.5375 1.86126 73.3765 1.02103C74.0983 0.349196 75.0341 -0.014907 75.9999 0.000565364C76.9695 -0.016318 77.9104 0.345462 78.6396 1.01542C79.4777 1.85298 80.0801 2.91601 80.3796 4.08803C80.8246 5.7284 81.0325 7.42944 80.9955 9.13431C81.0339 10.7983 80.8279 12.4586 80.3852 14.0572C80.0833 15.1948 79.4823 16.2207 78.6503 17.0177C77.9006 17.6735 76.9496 18.0222 75.9731 17.9989C75.0248 18.009 74.1043 17.6652 73.3765 17.0289ZM74.0562 12.6218C74.1706 13.3679 74.4373 14.0794 74.8382 14.7076C74.9656 14.9102 75.1378 15.078 75.3397 15.197C75.542 15.316 75.7684 15.3827 75.9999 15.3917C76.6908 15.3917 77.226 14.8702 77.6062 13.8161C78.0669 12.3084 78.2678 10.7269 78.2007 9.14551C78.2183 7.93182 78.1271 6.7191 77.9275 5.52339C77.8233 4.75021 77.5682 4.00772 77.1779 3.34231C77.063 3.12238 76.894 2.93886 76.688 2.81102C76.482 2.68317 76.2472 2.6157 76.0078 2.6157C75.7684 2.6157 75.5337 2.68317 75.3276 2.81102C75.1221 2.93886 74.9526 3.12238 74.8382 3.34231C74.4363 4.0111 74.1701 4.75923 74.0562 5.54022C73.8576 6.73413 73.7659 7.94491 73.783 9.15671C73.7663 10.3183 73.858 11.4788 74.0562 12.6218Z" fill="#1928DC"/>
<path d="M84.0745 3.84614C84.766 2.57554 85.8456 1.56308 87.1536 0.958835C88.68 0.287253 90.3344 -0.038803 92 0.00367679V2.55258C90.0048 2.55258 88.4761 3.062 87.4138 4.08081C86.3294 5.09603 85.8199 6.61884 85.8199 8.63828C85.8199 10.6578 86.3618 12.0386 87.4081 13.0047C88.4545 13.9708 89.994 14.4511 92 14.4511V17C89.1319 17 86.9093 16.3014 85.3483 14.9041C83.7872 13.5068 83.0061 11.4274 83.0061 8.65466C82.9471 6.98615 83.3146 5.33028 84.0745 3.84614Z" fill="#1928DC"/>
<path d="M95.0605 3.84614C95.7532 2.57554 96.8348 1.56308 98.145 0.958835C99.6741 0.287253 101.331 -0.038803 103 0.00367679V2.55258C101.001 2.55258 99.4698 3.062 98.4057 4.08081C97.3194 5.09603 96.809 6.61884 96.809 8.63828C96.809 10.6578 97.3518 12.0386 98.4 13.0047C99.4482 13.9708 100.99 14.4511 103 14.4511V17C100.127 17 97.9004 16.3014 96.3365 14.9041C94.7727 13.5068 94.0067 11.411 94.0067 8.63828C93.9452 6.97671 94.3077 5.32693 95.0605 3.84614Z" fill="#1928DC"/>
<path d="M107.974 0.373584V6.66225L113.038 2.4566L116 0V18H113.038V6.00001L107.979 10.2057V17.983H105V0.373584H107.974Z" fill="#1928DC"/>
<path d="M119.983 0.373584V6.66225L125.041 2.4566L128 0V18H125.029V6.00001L119.971 10.2057V17.983H117V0.373584H119.983Z" fill="#1928DC"/>
</svg>
