<svg width="71" height="20" viewBox="0 0 71 20" fill="none" xmlns="http://www.w3.org/2000/svg">
<path fill-rule="evenodd" clip-rule="evenodd" d="M10.7422 15.1452H7.69399C2.93876 15.1452 6.39343 4.83403 10.3968 4.83403H15.213C15.9852 4.83403 17.3467 4.97928 18.0174 3.02905L19.0537 0H12.4492C8.87267 0 6.08858 1.28631 4.07677 3.44399C0.601783 7.13692 -0.576864 12.9046 0.25632 15.6639C1.04886 18.2158 3.20294 19.8963 6.5763 19.9378L9.1978 19.9585H12.4289L13.2215 17.5311C13.8108 15.8091 12.4899 15.1452 10.7422 15.1452ZM47.8494 10.8714L48.845 7.57263H38.2169C36.449 7.57263 35.6564 8.07055 35.3516 9.10786L34.3559 12.4066H44.984C46.752 12.4066 47.5445 11.9087 47.8494 10.8714ZM32.7708 16.6805L31.775 19.9792H42.4032C44.1508 19.9792 44.9637 19.4813 45.2685 18.444L46.2643 15.1452H35.6361C33.8885 15.1452 33.0959 15.6432 32.7708 16.6805ZM50.3285 3.3195L51.3245 0.0207466H40.6962C38.9282 0.0207466 38.1357 0.518671 37.8309 1.55602L36.8351 4.85478H47.4633C49.2111 4.85478 50.0033 4.35685 50.3285 3.3195ZM34.2746 3.98341C33.8275 0.912865 32.2221 0.0207466 28.3203 0.0207466H21.2078L17.0623 12.4066H19.6837C21.2485 12.4066 22.041 12.4274 22.8742 10.1452L24.6015 4.83403H27.2433C29.499 4.83403 28.991 7.71786 27.853 10.5187C26.8369 12.9875 25.0689 15.166 22.9351 15.166H18.5254C16.7574 15.166 15.9446 15.6639 15.6194 16.7013L14.522 20H17.7532L20.9233 19.9792C23.7277 19.9585 26.024 19.751 28.7065 17.2822C31.5515 14.6473 34.8436 7.88381 34.2746 3.98341ZM70 0H63.8426L58.0509 6.2863C57.38 7.01244 56.6892 7.73857 56.0184 8.58923H55.9574L58.8431 0H53.824L47.0568 19.9792H52.0763L54.2301 13.693L56.4654 11.7635L58.2337 17.4482C58.7821 19.2116 59.3516 19.9792 60.5709 19.9792H64.4115L60.469 8.81744L70 0Z" fill="#00B33C"/>
</svg>
