<svg width="38" height="38" viewBox="0 0 38 38" fill="none" xmlns="http://www.w3.org/2000/svg">
<g clip-path="url(#clip0_11_6447)">
<path d="M0 18.24C0 9.64155 0 5.34237 2.67119 2.67119C5.34237 0 9.64155 0 18.24 0H19.76C28.3584 0 32.6576 0 35.3288 2.67119C38 5.34237 38 9.64155 38 18.24V19.76C38 28.3584 38 32.6576 35.3288 35.3288C32.6576 38 28.3584 38 19.76 38H18.24C9.64155 38 5.34237 38 2.67119 35.3288C0 32.6576 0 28.3584 0 19.76V18.24Z" fill="url(#paint0_linear_11_6447)"/>
<path d="M29.2924 9.08581L6.65096 17.8949C6.63749 17.9001 6.62443 17.9064 6.6119 17.9136C6.4283 18.0182 5.14701 18.8061 6.95371 19.5126L6.97226 19.5195L12.3636 21.2707C12.4047 21.2841 12.4483 21.2884 12.4912 21.2831C12.5341 21.2779 12.5754 21.2632 12.6121 21.2403L25.9842 12.8519C26.0169 12.8313 26.0534 12.8175 26.0916 12.8111C26.2776 12.7802 26.8133 12.7223 26.4744 13.1548C26.0911 13.6458 16.9575 21.8751 15.9438 22.7877C15.8853 22.8405 15.8491 22.9137 15.8427 22.9925L15.4003 28.2947C15.4002 28.3487 15.4127 28.402 15.4367 28.4503C15.4607 28.4986 15.4955 28.5407 15.5385 28.5731C15.5994 28.6117 15.6711 28.6296 15.7429 28.6241C15.8148 28.6186 15.883 28.5901 15.9374 28.5427L19.1407 25.6642C19.1913 25.6188 19.2558 25.5921 19.3236 25.5886C19.3914 25.5851 19.4583 25.605 19.5132 25.6451L25.1018 29.7249L25.1199 29.7371C25.2551 29.8211 26.7161 30.6758 27.138 28.767L30.9956 10.3245C31.0009 10.2661 31.0532 9.6239 30.5966 9.24439C30.1171 8.8477 29.4384 9.04801 29.3363 9.06961C29.3213 9.07383 29.3066 9.07924 29.2924 9.08581Z" fill="white"/>
</g>
<defs>
<linearGradient id="paint0_linear_11_6447" x1="18.9842" y1="0" x2="18.9842" y2="37.6994" gradientUnits="userSpaceOnUse">
<stop stop-color="#2AABEE"/>
<stop offset="1" stop-color="#229ED9"/>
</linearGradient>
<clipPath id="clip0_11_6447">
<rect width="38" height="38" fill="white"/>
</clipPath>
</defs>
</svg>
