<svg width="135" height="26" viewBox="0 0 135 26" fill="none" xmlns="http://www.w3.org/2000/svg">
<path d="M32.0051 11.1618H33.8071V20.6308H36.8528V8.33386H32L32.0051 11.1618ZM38.9137 14.4823C38.9137 18.4171 41.4518 20.9803 44.9391 20.9803C46.0648 21.0281 47.177 20.7098 48.1218 20.0694V16.5689C47.7663 16.976 47.3359 17.3044 46.8563 17.5346C46.3767 17.7647 45.8576 17.892 45.33 17.9087C43.4416 17.9087 42.3147 16.4471 42.3147 14.5882C42.3147 12.5652 43.5076 11.0559 45.33 11.0559C45.8709 11.0726 46.4016 11.2136 46.8842 11.469C47.3668 11.7245 47.7894 12.0879 48.1218 12.5335V8.97995C47.159 8.33056 46.0348 7.98994 44.8883 8.00023C41.6904 7.98434 38.9137 10.3728 38.9137 14.4823ZM62.4264 13.1266H60.6904V11.2836H66.0964V8.33386H57.3807V20.6308H62.4264C63.2843 20.6308 67.0558 20.6626 67.0558 16.8178C67.0457 13.1107 63.3096 13.1266 62.4264 13.1266ZM62.1066 18.1682H60.6904V15.5892H62.1066C63.1472 15.5892 63.7563 15.9069 63.7563 16.8707C63.7563 17.8346 63.1218 18.1682 62.0965 18.1682H62.1066ZM71.934 15.711V8.33386H68.7563V20.6308H71.9848L76.5533 13.2537V20.6308H79.736V8.33386H76.4873L71.934 15.711ZM81.0711 11.2836H83.665V20.6308H86.9645V11.2836H89.5584V8.33386H81.066L81.0711 11.2836ZM95.868 8.33386H90.9036V20.6308H94.203V16.5689H95.868C99.203 16.5689 100.162 14.1487 100.162 12.4434C100.162 10.7382 99.2132 8.33386 95.8629 8.33386H95.868ZM95.1472 13.868H94.203V11.04H95.1472C96.5584 11.04 96.7614 11.8291 96.7614 12.4434C96.7564 12.973 96.6041 13.868 95.1421 13.868H95.1472ZM104.706 15.711V8.33386H101.513V20.6308H104.746L109.315 13.2537V20.6308H112.497V8.33386H109.264L104.706 15.711ZM125.168 8.33386H121.31L117.756 13.4973V8.33386H114.462V20.6308H117.756V15.335L121.173 20.6308H125.305L120.706 14.2758L125.168 8.33386ZM131.218 11.0559C131.757 11.0741 132.286 11.2159 132.767 11.4713C133.248 11.7266 133.669 12.0893 134 12.5335V8.97995C133.037 8.33141 131.913 7.99087 130.766 8.00023C127.569 8.00023 124.792 10.3886 124.792 14.4982C124.792 18.433 127.33 20.9962 130.817 20.9962C131.945 21.0393 133.057 20.7154 134 20.0694V16.5689C133.644 16.9766 133.213 17.3054 132.732 17.5356C132.252 17.7658 131.732 17.8927 131.203 17.9087C129.32 17.9087 128.193 16.4471 128.193 14.5882C128.208 12.5652 129.401 11.0559 131.218 11.0559ZM52.7208 12.5335C52.3393 12.5335 51.9664 12.6515 51.6492 12.8726C51.3319 13.0937 51.0847 13.408 50.9387 13.7758C50.7927 14.1435 50.7545 14.5481 50.8289 14.9385C50.9034 15.3288 51.0871 15.6874 51.3568 15.9689C51.6266 16.2503 51.9703 16.442 52.3445 16.5196C52.7187 16.5973 53.1065 16.5574 53.459 16.4051C53.8115 16.2528 54.1127 15.9949 54.3247 15.6639C54.5366 15.333 54.6497 14.9439 54.6497 14.5459C54.6497 14.0121 54.4465 13.5003 54.0848 13.1229C53.723 12.7455 53.2324 12.5335 52.7208 12.5335Z" fill="#231F20"/>
<path d="M13.0004 0C12.053 0.00177618 11.1085 0.10596 10.1834 0.310736V13.0153C10.1836 13.5666 10.3449 14.1058 10.6476 14.5666C10.9503 15.0274 11.3811 15.3897 11.887 15.6088C12.3929 15.8279 12.9519 15.8943 13.495 15.7998C14.0382 15.7053 14.5419 15.4541 14.9441 15.0771C15.3463 14.7 15.6295 14.2136 15.7589 13.6777C15.8882 13.1417 15.858 12.5797 15.6721 12.0607C15.4861 11.5417 15.1524 11.0884 14.7121 10.7566C14.2718 10.4248 13.7441 10.2289 13.194 10.1932V7.93143C14.1931 7.96642 15.1599 8.29466 15.9739 8.87524C16.7878 9.45583 17.4129 10.2631 17.7712 11.1964C18.1296 12.1298 18.2054 13.148 17.9892 14.1241C17.7729 15.1002 17.2742 15.9911 16.5552 16.6858C15.8362 17.3805 14.9287 17.8482 13.9457 18.0308C12.9628 18.2133 11.9478 18.1026 11.0273 17.7123C10.1069 17.3221 9.32157 16.6696 8.76932 15.8362C8.21707 15.0028 7.92227 14.0253 7.92166 13.0255V1.03409C7.60073 1.16654 7.2849 1.31936 6.97926 1.48237V13.0153C6.97984 14.199 7.32903 15.3564 7.98324 16.3429C8.63745 17.3294 9.56771 18.1014 10.6579 18.5625C11.7481 19.0237 12.95 19.1535 14.1136 18.9358C15.2771 18.7182 16.3508 18.1627 17.2006 17.3386C18.0504 16.5146 18.6387 15.4585 18.8921 14.3022C19.1454 13.1459 19.0527 11.9406 18.6253 10.8367C18.198 9.73285 17.455 8.77926 16.4891 8.09498C15.5232 7.4107 14.3771 7.02605 13.194 6.98903V4.72727C14.8247 4.76437 16.4081 5.2818 17.7461 6.21475C19.084 7.1477 20.1169 8.4547 20.7154 9.97202C21.3139 11.4893 21.4514 13.1495 21.1106 14.7446C20.7698 16.3397 19.966 17.7988 18.7997 18.9392C17.6335 20.0795 16.1567 20.8503 14.5543 21.1551C12.952 21.46 11.2953 21.2852 9.79182 20.6527C8.28834 20.0203 7.0049 18.9582 6.10226 17.5997C5.19963 16.2411 4.71793 14.6464 4.71751 13.0153V2.98002C2.35863 4.92987 0.763285 7.64944 0.21238 10.6599C-0.338525 13.6703 0.19033 16.7786 1.70583 19.4375C3.22133 22.0963 5.6263 24.1353 8.4973 25.1953C11.3683 26.2553 14.5212 26.2685 17.4009 25.2324C20.2807 24.1963 22.7026 22.1775 24.2401 19.5314C25.7777 16.8852 26.3325 13.7814 25.8067 10.7665C25.2809 7.75157 23.7082 5.01881 21.3657 3.04937C19.0231 1.07993 16.0608 9.62488e-05 13.0004 0Z" fill="#DA1A35"/>
</svg>
