<svg width="109" height="32" viewBox="0 0 109 32" fill="none" xmlns="http://www.w3.org/2000/svg">
<path fill-rule="evenodd" clip-rule="evenodd" d="M41.1626 7.37082V21.7992H46.2956V24.2878H38.4298V7.37082H41.1626ZM55.9428 14.5482V13.0266H58.5326V24.2878H55.9422V22.7649C55.5942 23.3289 55.0988 23.7722 54.4567 24.0942C53.8158 24.4161 53.1701 24.577 52.5206 24.577C51.6809 24.577 50.9124 24.4199 50.2156 24.1061C49.5374 23.8057 48.9266 23.3657 48.4214 22.8134C47.9219 22.265 47.5271 21.6256 47.2575 20.9283C46.9774 20.2055 46.8361 19.4342 46.8413 18.6566C46.8413 17.8675 46.9801 17.1142 47.2575 16.3968C47.5254 15.6952 47.9202 15.0518 48.4214 14.5004C48.9267 13.948 49.5374 13.5077 50.2156 13.207C50.9124 12.8927 51.6809 12.7355 52.5206 12.7355C53.1701 12.7355 53.8158 12.8971 54.4573 13.2196C55.0988 13.5415 55.5942 13.9848 55.9428 14.5482ZM55.7047 20.0342C55.8641 19.5936 55.9448 19.1271 55.9428 18.6572C55.9428 18.173 55.863 17.7141 55.7047 17.2789C55.5559 16.8604 55.3302 16.475 55.0399 16.1434C54.7493 15.8173 54.3978 15.5543 54.0061 15.37C53.6016 15.177 53.1541 15.0801 52.663 15.0801C52.172 15.0801 51.7282 15.177 51.3322 15.37C50.9363 15.5637 50.5956 15.8215 50.3108 16.1434C50.0211 16.4734 49.799 16.8595 49.6577 17.2789C49.5056 17.7214 49.4292 18.1875 49.4318 18.6566C49.4318 19.1401 49.5067 19.5997 49.6577 20.0336C49.7989 20.4533 50.021 20.8397 50.3108 21.1698C50.5982 21.4939 50.9454 21.7567 51.3322 21.9431C51.7282 22.1368 52.172 22.233 52.663 22.233C53.1541 22.233 53.6022 22.1368 54.0061 21.9438C54.3979 21.7596 54.7494 21.4966 55.0399 21.1704C55.3303 20.8387 55.556 20.453 55.7047 20.0342ZM60.5761 24.2872V13.026H67.6102V15.6177H63.1659V24.2872H60.5761ZM76.9965 14.5482V13.0266H79.5863V24.2878H76.9959V22.7649C76.6472 23.3289 76.1525 23.7722 75.5104 24.0942C74.8695 24.4161 74.2238 24.577 73.5743 24.577C72.734 24.577 71.966 24.4199 71.2693 24.1061C70.591 23.8057 69.9803 23.3657 69.4751 22.8134C68.9756 22.265 68.5808 21.6256 68.3112 20.9283C68.0311 20.2055 67.8898 19.4342 67.895 18.6566C67.895 17.8675 68.0331 17.1142 68.3112 16.3968C68.579 15.6952 68.9739 15.0518 69.4751 14.5004C69.9804 13.948 70.5911 13.5077 71.2693 13.207C71.966 12.8927 72.734 12.7355 73.5743 12.7355C74.2238 12.7355 74.8695 12.8971 75.511 13.2196C76.1525 13.5415 76.6472 13.9848 76.9965 14.5482ZM76.7583 20.0342C76.9175 19.5935 76.998 19.1271 76.9959 18.6572C76.9959 18.173 76.9161 17.7141 76.7583 17.2789C76.6094 16.8604 76.3835 16.4749 76.0929 16.1434C75.8024 15.8173 75.4508 15.5543 75.0592 15.37C74.6553 15.177 74.2078 15.0801 73.7167 15.0801C73.2256 15.0801 72.7818 15.177 72.3859 15.37C71.99 15.5637 71.6493 15.8215 71.3645 16.1434C71.0746 16.4733 70.8523 16.8594 70.7107 17.2789C70.5587 17.7214 70.4822 18.1875 70.4848 18.6566C70.4848 19.1401 70.5597 19.5997 70.7107 20.0336C70.8521 20.4533 71.0744 20.8397 71.3645 21.1698C71.6519 21.4939 71.999 21.7567 72.3859 21.9431C72.7818 22.1368 73.2256 22.233 73.7167 22.233C74.2078 22.233 74.6559 22.1368 75.0592 21.9438C75.4509 21.7596 75.8025 21.4966 76.0929 21.1704C76.3836 20.8387 76.6095 20.453 76.7583 20.0342ZM89.9701 13.026H92.5937L88.3422 24.2872H85.0876L80.8361 13.026H83.4597L86.7149 21.6495L89.9701 13.026ZM98.2423 12.7367C101.769 12.7367 104.175 15.9151 103.723 19.6356H95.1301C95.1301 20.607 96.0945 22.4851 98.3847 22.4851C100.355 22.4851 101.675 20.7227 101.676 20.7214L103.426 22.0984C101.862 23.7974 100.58 24.5777 98.5744 24.5777C94.9895 24.5777 92.5606 22.2714 92.5606 18.6572C92.5606 15.3876 95.0712 12.7367 98.2423 12.7367ZM95.1369 17.6782H101.344C101.325 17.4613 100.989 14.8286 98.2221 14.8286C95.4555 14.8286 95.1571 17.4613 95.1369 17.6782ZM105.41 24.2872V7.37082H108V24.2872H105.41ZM30.5474 7.23878C30.5587 7.28142 30.5645 7.32539 30.5646 7.36957V14.2382C30.5645 14.3266 30.5415 14.4133 30.4981 14.4896C30.4546 14.5659 30.3922 14.6291 30.3172 14.6727L24.649 17.992V24.5708C24.6487 24.659 24.6257 24.7456 24.5823 24.8218C24.5388 24.898 24.4765 24.961 24.4016 25.0046L12.5703 31.933C12.5433 31.9493 12.5132 31.9588 12.4844 31.9695C12.4727 31.9732 12.4623 31.9802 12.4512 31.9833C12.3683 32.0056 12.2812 32.0056 12.1983 31.9833C12.1848 31.9795 12.1726 31.972 12.1597 31.9669C12.132 31.9575 12.1044 31.9481 12.0786 31.933L0.246766 25.0059C0.17179 24.9621 0.109462 24.8988 0.0661183 24.8224C0.0227748 24.746 -3.78667e-05 24.6591 4.71817e-08 24.5708V3.96479C9.749e-05 3.92061 0.00587643 3.87664 0.0171877 3.83401C0.0208708 3.81892 0.0294646 3.80571 0.0343754 3.79188C0.0441969 3.76547 0.0527908 3.73844 0.0662954 3.71391C0.0755031 3.69757 0.0890077 3.68436 0.099443 3.6699C0.114175 3.64978 0.126452 3.6284 0.14364 3.6108C0.157758 3.59633 0.176174 3.58564 0.192134 3.57307C0.209935 3.55924 0.225895 3.54289 0.246152 3.53094L0.246766 3.53031L6.16301 0.0664333C6.23786 0.0228911 6.32247 0 6.40855 0C6.49463 0 6.57924 0.0228911 6.65409 0.0664333L12.5703 3.53031H12.5716C12.5912 3.54289 12.6072 3.55924 12.6256 3.57307C12.6415 3.58564 12.6593 3.59633 12.6735 3.6108C12.6906 3.6284 12.7029 3.64978 12.7177 3.66927C12.7287 3.68436 12.7422 3.69757 12.7514 3.71391C12.7649 3.73844 12.7735 3.76547 12.7833 3.79188C12.7882 3.80571 12.7962 3.81892 12.8005 3.83401C12.8116 3.87667 12.8172 3.92064 12.8171 3.96479V16.835L17.7475 13.9484V7.36957C17.7474 7.32542 17.753 7.28144 17.7641 7.23878C17.7684 7.22369 17.7764 7.21112 17.7819 7.19666C17.7911 7.17025 17.7997 7.14321 17.8132 7.11869C17.8224 7.10234 17.8359 7.08914 17.8469 7.07468C17.8617 7.05455 17.874 7.03318 17.8911 7.0162C17.9053 7.00174 17.9231 6.99105 17.939 6.97847C17.9574 6.96401 17.9734 6.94704 17.9937 6.93572V6.93509L23.9099 3.47121C23.9848 3.42743 24.0695 3.40441 24.1557 3.40441C24.242 3.40441 24.3267 3.42743 24.4016 3.47121L30.3172 6.93509C30.3381 6.94766 30.3547 6.96401 30.3731 6.97784C30.3884 6.99042 30.4068 7.00174 30.421 7.01557C30.4381 7.03318 30.4504 7.05455 30.4645 7.07405C30.4756 7.08914 30.4891 7.10234 30.4983 7.11869C30.5124 7.14321 30.5204 7.17025 30.5302 7.19666C30.5358 7.21112 30.5437 7.22369 30.5474 7.23878ZM29.5788 13.9484V8.23664L27.5083 9.4489L24.649 11.1233V16.835L29.5788 13.9484ZM23.6631 24.2809V18.5654L20.8493 20.1989L12.8171 24.8612V30.6302L23.6631 24.2796V24.2809ZM0.985836 4.83186V24.2809L11.8313 30.6314V24.8631L6.16547 21.6023L6.16424 21.6005L6.16178 21.5998C6.14214 21.5885 6.12679 21.5722 6.10899 21.5583C6.09303 21.5458 6.07584 21.5357 6.06173 21.5219L6.0605 21.52C6.04454 21.5043 6.03349 21.4848 6.01998 21.4672C6.00771 21.4508 5.99297 21.4364 5.98315 21.4187L5.98254 21.4169C5.97149 21.398 5.96474 21.3754 5.95676 21.354C5.94878 21.3358 5.93834 21.3181 5.93343 21.298C5.92668 21.2741 5.92607 21.2484 5.923 21.2238C5.92115 21.205 5.91563 21.1867 5.91563 21.1672V7.7179L3.05695 6.04413L0.985836 4.83186ZM6.40855 1.07938L1.48121 3.96542L6.40855 6.85021L11.3365 3.96479L6.40855 1.07938ZM8.97197 19.086L11.8313 17.4122V4.83186L9.76137 6.04413L6.90147 7.71853V20.2983L8.97197 19.086ZM24.1561 4.48478L19.2281 7.36957L24.1561 10.255L29.0834 7.36957L24.1561 4.48478ZM23.6631 11.1233L20.8032 9.4489L18.7333 8.23664V13.9484L21.5926 15.6228L23.6631 16.835V11.1233ZM12.3236 23.9942L19.5516 19.7978L23.1647 17.7002L18.2404 14.8167L12.5703 18.1366L7.40298 21.1622L12.3236 23.9942Z" fill="#FF2D20"/>
</svg>
