<svg width="100" height="27" viewBox="0 0 100 27" fill="none" xmlns="http://www.w3.org/2000/svg">
<g clip-path="url(#clip0_11_6536)">
<path d="M26 3H12.8254L11 5.94545L20.5238 12L26 3Z" fill="#00B5DE"/>
<path d="M10.6494 5.50532L2 0V13.2447L5.03896 15L20 11.4096L10.6494 5.50532Z" fill="#00DECC"/>
<path d="M23 13.7553L20.3818 12L15 21.4947L23 27V13.7553Z" fill="#FF5529"/>
<path d="M20 12L5.26718 15.5844L0 24H12.6718L14.3511 21.2727L20 12Z" fill="#FF9640"/>
<path d="M46.8485 20.9209V12.6158L42.6465 19.4972H41.1919L37.0707 12.8531V21H34V7H36.7475L42 15.6215L47.2525 7H49.9192L50 20.8418H46.8485V20.9209Z" fill="#102C53"/>
<path d="M53 14C53 10 56.2031 7 60.5 7C64.7969 7 68 9.92308 68 14C68 18.0769 64.7969 21 60.5 21C56.2031 21 53 18 53 14ZM64.7969 14C64.7969 11.4615 62.9219 9.69231 60.5 9.69231C58.0781 9.69231 56.2031 11.4615 56.2031 14C56.2031 16.5385 58.0781 18.3077 60.5 18.3077C62.9219 18.3077 64.7969 16.5385 64.7969 14Z" fill="#102C53"/>
<path d="M71 7H77.3277C81.8362 7 85 9.78409 85 14C85 18.2159 81.9153 21 77.3277 21H71V7ZM77.1695 18.2955C79.9379 18.2955 81.7571 16.625 81.7571 14C81.7571 11.2955 79.9379 9.70455 77.1695 9.70455H74.2429V18.375H77.1695V18.2955Z" fill="#102C53"/>
<path d="M96.3616 20.9205L93.0395 16.0682L89.7175 20.9205H86L91.1412 13.8409L86.2373 7H89.8757L93.0395 11.5341L96.2034 7H99.6836L94.8588 13.7614L100 21H96.3616V20.9205Z" fill="#102C53"/>
</g>
<defs>
<clipPath id="clip0_11_6536">
<rect width="100" height="27" fill="white"/>
</clipPath>
</defs>
</svg>
