<svg width="139" height="32" viewBox="0 0 139 32" fill="none" xmlns="http://www.w3.org/2000/svg">
<g clip-path="url(#clip0_11_6517)">
<path d="M80.7797 13H75.3482V13.5703C77.0472 13.5703 77.3203 13.9306 77.3203 16.0629V19.907C77.3203 22.039 77.0474 22.4295 75.3482 22.4295C74.0438 22.2494 73.1636 21.5586 71.9499 20.2373L70.5542 18.7359C72.4353 18.4051 73.4365 17.2343 73.4365 15.9127C73.4365 14.2614 72.0107 13 69.3403 13H64V13.5703C65.6989 13.5703 65.9721 13.9306 65.9721 16.0629V19.907C65.9721 22.039 65.6989 22.4295 64 22.4295V23H70.0381V22.4295C68.3392 22.4295 68.066 22.039 68.066 19.907V18.8262H68.5817L71.9499 23H80.7797C85.1186 23 87 20.718 87 17.9848C87 15.2522 85.1189 13 80.7797 13ZM68.0663 17.8945V13.901H69.3101C70.6754 13.901 71.2825 14.8319 71.2825 15.913C71.2825 16.9642 70.6754 17.8948 69.3101 17.8948L68.0663 17.8945ZM80.8709 22.0691H80.6584C79.5663 22.0691 79.4145 21.7991 79.4145 20.4176V13.901C79.4145 13.901 80.7496 13.901 80.8709 13.901C84.0266 13.901 84.6028 16.183 84.6028 17.955C84.6028 19.7866 84.0263 22.0691 80.8709 22.0691Z" fill="#00749A"/>
<path d="M46.7993 18.3336L48.8965 11.9866C49.5047 10.1511 49.2311 9.62247 47.2858 9.62247V9H53V9.62247C51.0852 9.62247 50.6294 10.0891 49.8694 12.3602L46.4041 23H46.0091L42.9085 13.2622L39.7477 23H39.3525L35.9788 12.3602C35.2493 10.0891 34.763 9.62247 33 9.62247V9H39.7477V9.62247C37.9542 9.62247 37.4677 10.0579 38.1063 11.9866L40.1427 18.3336L43.2126 9H43.7903L46.7993 18.3336Z" fill="#00749A"/>
<path d="M57 23C53.7001 23 51 20.5184 51 17.4846C51 14.4821 53.7004 12 57 12C60.3001 12 63 14.4821 63 17.4846C63 20.5184 60.3001 23 57 23ZM57 12.9505C54.2403 12.9505 53.28 15.4933 53.28 17.4849C53.28 19.5075 54.2403 22.0198 57 22.0198C59.7903 22.0198 60.7503 19.5075 60.7503 17.4849C60.7503 15.4933 59.7903 12.9505 57 12.9505Z" fill="#00749A"/>
<path d="M93.8636 21.3996V22H87V21.3996C89.0083 21.3996 89.3679 20.8894 89.3679 17.8867V13.0835C89.3679 10.0808 89.0083 9.60069 87 9.60069V9H93.204C96.2911 9 98 10.5912 98 12.7232C98 14.7948 96.2911 16.4158 93.204 16.4158H91.4956V17.8864C91.4956 20.8894 91.8553 21.3996 93.8636 21.3996ZM93.204 10.0808H91.4956V15.305H93.204C94.8827 15.305 95.6618 14.1342 95.6618 12.7232C95.6618 11.2822 94.8827 10.0808 93.204 10.0808Z" fill="#464342"/>
<path d="M119.536 20.1773L119.381 20.7177C119.103 21.7088 118.762 22.0691 116.566 22.0691H116.133C114.525 22.0691 114.247 21.7088 114.247 19.5767V18.1955C116.659 18.1955 116.845 18.4054 116.845 19.9672H117.433V15.4924H116.845C116.845 17.054 116.659 17.2641 114.247 17.2641V13.901H115.948C118.144 13.901 118.484 14.2614 118.762 15.2524L118.917 15.8227H119.412L119.195 13H110.102V13.5703C111.834 13.5703 112.113 13.9306 112.113 16.0629V19.907C112.113 21.8575 111.876 22.3488 110.511 22.4189C109.213 22.2264 108.322 21.5391 107.103 20.2373L105.68 18.7359C107.598 18.4051 108.618 17.2343 108.618 15.9127C108.618 14.2614 107.165 13 104.443 13H99V13.5703C100.732 13.5703 101.01 13.9306 101.01 16.0629V19.907C101.01 22.039 100.732 22.4295 99 22.4295V23H105.155V22.4295C103.423 22.4295 103.144 22.039 103.144 19.907V18.8262H103.67L107.103 23H119.814L120 20.1776L119.536 20.1773ZM103.144 17.8945V13.901H104.412C105.804 13.901 106.423 14.8319 106.423 15.913C106.423 16.9642 105.804 17.8948 104.412 17.8948L103.144 17.8945Z" fill="#464342"/>
<path d="M126.049 23C124.753 23 123.619 22.3568 123.134 21.9581C122.972 22.1116 122.68 22.5712 122.616 23H122V18.772H122.648C122.907 20.7942 124.397 21.9891 126.308 21.9891C127.344 21.9891 128.186 21.4377 128.186 20.5186C128.186 19.7221 127.442 19.109 126.114 18.5269L124.267 17.6997C122.972 17.1171 122 16.1059 122 14.758C122 13.2873 123.458 12.0312 125.466 12.0312C126.535 12.0312 127.441 12.3989 127.992 12.8277C128.154 12.7052 128.316 12.3679 128.413 12H129.029V15.6159H128.349C128.122 14.1756 127.28 12.9807 125.563 12.9807C124.656 12.9807 123.814 13.471 123.814 14.2373C123.814 15.0338 124.494 15.4627 126.049 16.1369L127.83 16.9641C129.385 17.6687 130 18.803 130 19.7221C130 21.6521 128.219 23 126.049 23Z" fill="#464342"/>
<path d="M135.049 23C133.753 23 132.619 22.3568 132.134 21.9581C131.972 22.1116 131.681 22.5712 131.616 23H131V18.772H131.648C131.907 20.7942 133.397 21.9891 135.308 21.9891C136.345 21.9891 137.187 21.4377 137.187 20.5186C137.187 19.7221 136.442 19.109 135.114 18.5269L133.267 17.6997C131.972 17.1171 131 16.1059 131 14.758C131 13.2873 132.458 12.0312 134.466 12.0312C135.535 12.0312 136.441 12.3989 136.992 12.8277C137.154 12.7052 137.316 12.3679 137.413 12H138.028V15.6159H137.349C137.122 14.1756 136.28 12.9807 134.563 12.9807C133.656 12.9807 132.814 13.471 132.814 14.2373C132.814 15.0338 133.494 15.4627 135.049 16.1369L136.83 16.9641C138.385 17.6687 139 18.803 139 19.7221C139 21.6521 137.219 23 135.049 23Z" fill="#464342"/>
<path d="M2 15.605C2 21.0564 5.2652 25.7675 10 28L3.22894 10C2.44134 11.7128 2 13.6083 2 15.605Z" fill="#464342"/>
<path d="M25.9971 14.9398C25.9971 13.2556 25.38 12.0892 24.8508 11.1813C24.1462 10.0587 23.4858 9.10808 23.4858 7.9855C23.4858 6.73275 24.4549 5.56661 25.8199 5.56661C25.8815 5.56661 25.94 5.57413 26 5.57751C23.527 3.35622 20.2323 2 16.6136 2C11.7576 2 7.48538 4.44274 5 8.14265C5.32611 8.15224 5.63345 8.15898 5.89449 8.15898C7.34838 8.15898 9.5989 7.98602 9.5989 7.98602C10.3482 7.94272 10.4365 9.02172 9.68803 9.10859C9.68803 9.10859 8.93504 9.19547 8.09714 9.23851L13.1589 24L16.2008 15.0555L14.0351 9.23799C13.2866 9.19495 12.5776 9.10808 12.5776 9.10808C11.8285 9.06503 11.9163 7.9422 12.6654 7.9855C12.6654 7.9855 14.9608 8.15847 16.3267 8.15847C17.7803 8.15847 20.0311 7.9855 20.0311 7.9855C20.7809 7.9422 20.869 9.0212 20.1202 9.10808C20.1202 9.10808 19.3656 9.19495 18.5293 9.23799L23.5524 23.8877L24.9389 19.3453C25.5398 17.4603 25.9971 16.1065 25.9971 14.9398Z" fill="#464342"/>
<path d="M15.9056 17L12 29.4197C13.1661 29.7948 14.3994 30 15.6773 30C17.1931 30 18.6469 29.7132 20 29.1925C19.9651 29.1315 19.9334 29.0667 19.9074 28.9963L15.9056 17Z" fill="#464342"/>
<path d="M28.2755 9C28.336 9.42655 28.3703 9.88444 28.3703 10.377C28.3703 11.7359 28.1035 13.2635 27.3 15.1735L23 27C27.1851 24.6784 30 20.3653 30 15.425C30.0003 13.0968 29.3751 10.9075 28.2755 9Z" fill="#464342"/>
<path d="M15.9996 0C7.17765 0 0 7.17736 0 15.9996C0 24.8229 7.17765 32 15.9996 32C24.8213 32 32 24.8229 32 15.9996C31.9997 7.17736 24.8213 0 15.9996 0ZM15.9996 31.2666C7.5822 31.2666 0.733618 24.4178 0.733618 15.9996C0.733618 7.58192 7.58194 0.733642 15.9996 0.733642C24.4168 0.733642 31.2648 7.58192 31.2648 15.9996C31.2648 24.4178 24.4168 31.2666 15.9996 31.2666Z" fill="#464342"/>
</g>
<defs>
<clipPath id="clip0_11_6517">
<rect width="139" height="32" fill="white"/>
</clipPath>
</defs>
</svg>
