<svg width="130" height="20" viewBox="0 0 130 20" fill="none" xmlns="http://www.w3.org/2000/svg">
<g clip-path="url(#clip0_11_6439)">
<rect width="130" height="20" fill="white"/>
<path d="M121.417 10.2109C121.417 9.39745 122.529 8.74126 123.985 8.74126C125.505 8.74126 127.055 9.46071 128.104 10.6333L130 8.31948C128.199 6.72391 126.366 5.8954 124.079 5.8954C121.228 5.8954 118.284 7.20897 118.284 10.2109C118.284 13.9015 121.479 14.1673 124.079 14.3866C125.536 14.4951 126.82 14.6053 126.82 15.5592C126.82 16.5907 125.348 17.0595 124.048 17.0595C122.544 17.0595 120.916 16.419 119.725 14.9958L117.705 17.1385C119.318 19.1088 121.652 19.9687 123.938 19.9687C126.805 19.9687 129.953 18.6081 129.953 15.4965C129.953 11.9776 126.726 11.6341 124.252 11.3841C122.701 11.2274 121.417 11.087 121.417 10.2109ZM107.007 11.087C107.524 9.78911 108.636 9.03832 110.28 9.03832C111.941 9.03832 112.927 9.8355 113.351 11.087H107.007ZM110.437 5.8954C106.522 5.8954 103.373 8.94432 103.373 12.9477C103.373 16.7161 106.161 19.9687 110.265 19.9687C112.739 19.9687 114.744 18.7798 116.17 16.7474L114.008 14.9181C113.241 16.0906 111.863 16.7787 110.218 16.7787C108.542 16.7787 106.803 15.5278 106.662 13.6822H116.89V12.588C116.859 8.7256 114.227 5.8954 110.437 5.8954ZM70.372 5.8954C66.4563 5.8954 63.3082 8.94432 63.3082 12.9477C63.3082 16.7161 66.0964 19.9687 70.1998 19.9687C72.6746 19.9687 74.6795 18.7798 76.1047 16.7474L73.9434 14.9181C73.1758 16.0906 71.7978 16.7787 70.1527 16.7787C68.4769 16.7787 66.7383 15.5278 66.5976 13.6822H76.8252V12.588C76.8095 8.7256 74.1626 5.8954 70.372 5.8954ZM98.6433 19.4836H101.776V6.37985H98.6433V19.4842V19.4836ZM100.209 0C98.941 0 97.8601 1.06351 97.8601 2.39214C97.8601 3.70571 98.9097 4.67583 100.272 4.67583C101.604 4.67583 102.575 3.73765 102.575 2.43974C102.559 1.11051 101.494 0 100.209 0ZM54.8035 5.87973C53.3312 5.87973 52.0002 6.31779 50.8722 7.08363V0.156664H47.7398V12.9477C47.7398 16.8408 50.9193 19.9687 54.7878 19.9687C58.6878 19.9687 61.883 16.8571 61.883 12.9164C61.8673 8.99132 58.7349 5.87973 54.8035 5.87973ZM38.5146 6.09846C35.0217 6.45818 32.1707 9.46071 32.1707 13.0417C32.1707 16.8257 35.4136 20 39.2037 20C42.978 20 46.2361 16.8257 46.2361 13.0417C46.2361 11.4311 45.6563 9.94517 44.7167 8.7726L37.7628 0.172331H33.7058L38.5146 6.09846ZM14.2374 13.8389L11.3708 6.37985H9.17921L6.29682 13.8389L3.41503 6.37985H0L5.04313 19.5155H7.23588L10.259 11.6968L13.3135 19.5149H15.5056L20.5337 6.37985H17.1349L14.2374 13.8389ZM81.602 9.36671V6.37985H78.4696V19.4842H81.602V13.9491C81.602 11.2593 84.4844 9.61738 87.3505 9.61738V6.38045H87.0371C84.6094 6.38045 82.8551 7.25657 81.602 9.36732V9.36671ZM91.5482 9.36671V6.37985H88.4157V19.4842H91.5482V13.9491C91.5482 11.2593 94.4299 9.61738 97.296 9.61738V6.38045H96.9832C94.5706 6.38045 92.8169 7.25657 91.5482 9.36732V9.36671ZM27.4253 19.4836H30.5571V0.172331H27.4247V19.4842L27.4253 19.4836ZM39.2194 16.8408C37.0574 16.8408 35.3037 15.1054 35.3037 12.9477C35.3037 10.7743 37.0574 9.03832 39.2037 9.03832C41.3807 9.03832 43.1508 10.7737 43.1508 12.9477C43.1508 15.1054 41.3807 16.8408 39.2194 16.8408ZM54.7878 16.8408C54.2732 16.8418 53.7634 16.7414 53.2877 16.5453C52.8121 16.3492 52.3799 16.0613 52.0161 15.6981C51.6523 15.335 51.3639 14.9036 51.1676 14.4289C50.9713 13.9542 50.8709 13.4455 50.8722 12.932C50.8722 10.7899 52.548 9.03832 54.8035 9.03832C57.0591 9.03832 58.7349 10.7899 58.7349 12.9164C58.7349 15.1368 56.9492 16.8408 54.7878 16.8408ZM21.9903 19.4836H25.1227V6.37985H21.9903V19.4842V19.4836ZM23.5254 0C22.2566 0 21.1913 1.06351 21.1913 2.40841C21.1913 3.76898 22.3037 4.69149 23.5254 4.69149C24.8877 4.69149 25.9216 3.56532 25.9216 2.34575C25.9059 1.11051 24.8249 0 23.5254 0ZM66.9418 11.087C67.4745 9.78911 68.5711 9.03832 70.1998 9.03832C71.8757 9.03832 72.8938 9.8355 73.3166 11.087H66.9418Z" fill="url(#paint0_linear_11_6439)"/>
</g>
<defs>
<linearGradient id="paint0_linear_11_6439" x1="0" y1="10" x2="130" y2="10" gradientUnits="userSpaceOnUse">
<stop stop-color="#E639CF"/>
<stop offset="1" stop-color="#7702F7"/>
</linearGradient>
<clipPath id="clip0_11_6439">
<rect width="130" height="20" fill="white"/>
</clipPath>
</defs>
</svg>
