<svg width="1573" height="146" viewBox="0 0 1573 146" fill="none" xmlns="http://www.w3.org/2000/svg">
<path fill-rule="evenodd" clip-rule="evenodd" d="M39.7011 0.146826C39.7011 0.222796 39.0727 2.6147 38.3045 5.46185C37.5365 8.309 36.7658 11.1805 36.5922 11.8433C36.4025 12.567 36.1107 13.048 35.8617 13.048C35.634 13.048 35.4474 13.1002 35.4474 13.1642C35.4474 13.228 27.4717 42.9045 17.7237 79.1119C7.97567 115.319 0 144.988 0 145.044C0 145.099 5.66478 145.144 12.5887 145.144H25.177L25.3537 144.441L25.5304 143.737L31.9685 143.661L38.4068 143.585L57.6159 72.2928C68.1807 33.0821 76.8304 0.777259 76.8372 0.504563C76.8491 0.0371243 75.7812 0.00849413 58.2756 0.00849413C48.0596 0.00849413 39.7011 0.0708568 39.7011 0.146826ZM102.278 0.221095C102.208 0.338167 101.419 3.17625 100.525 6.52825C99.4632 10.5132 98.7247 12.7699 98.3924 13.048C98.0277 13.353 92.9848 31.69 80.5405 77.9622C71.0015 113.431 63.0212 143.058 62.8066 143.8L62.4164 145.15L75.0921 145.076L87.7678 145.002L87.8585 144.365L87.949 143.727H94.4209H100.893L101.053 143.089C101.142 142.738 109.833 110.446 120.368 71.3279C130.902 32.2099 139.521 0.160433 139.521 0.106574C139.521 -0.0963888 102.4 0.0178486 102.278 0.221095ZM413.34 6.02438C402.781 7.01851 391.13 11.459 383.192 17.5145C380.304 19.717 374.853 25.2075 372.625 28.1576C368.609 33.4754 366.057 38.4058 363.565 45.6625C362.735 48.0791 361.487 51.6729 360.792 53.6487C360.097 55.6245 359.289 58.4217 358.998 59.8648L358.467 62.4883L358.325 34.8706L358.183 7.25265L337.411 7.18008L316.639 7.10723V13.7707V20.4339H315.079H313.52L313.501 37.938L313.483 55.4422L312.795 52.1273C307.83 28.2018 290.443 12.0798 265.325 8.11042C259.971 7.26456 252.929 7.08172 229.013 7.16761L205.334 7.25265L205.258 13.8433L205.182 20.4339H203.769H202.357V75.5865V130.739L226.957 130.626C252.753 130.507 253.207 130.487 259.923 129.163C261.093 128.933 263.518 128.541 265.311 128.292C278.572 126.453 290.203 120.745 298.686 111.91C305.664 104.643 310.571 95.0724 312.727 84.5212L313.378 81.3384L313.52 105.95L313.662 130.561L328.62 130.635L343.579 130.708V130.002V129.295L350.881 129.22L358.183 129.144L358.275 109.018L358.367 88.8914L359.049 91.8678C360.065 96.3044 361.286 99.8213 363.182 103.773C371.034 120.139 385.745 129.961 405.258 131.866C409.782 132.307 417.89 132.02 421.989 131.273C423.704 130.96 426.512 130.513 428.228 130.279C436.302 129.178 441.975 127.517 448.078 124.469C461.8 117.616 471.047 105.565 474.292 90.3087L474.834 87.7575L474.855 109.23L474.876 130.703H489.906H504.936V129.994V129.286H512.167H519.398V86.9071V44.5287H534.286H549.174V87.6158V130.703H563.92H578.666V129.994V129.286H586.039H593.413V86.9071V44.5287H602.629H611.845V43.82V43.1113H619.22H626.596L626.522 25.182L626.45 7.25265H552.152H477.854L477.778 13.8433L477.702 20.4339H476.289H474.876L474.843 37.0876C474.813 52.7694 474.788 53.543 474.421 50.3398C473.584 43.0274 472.292 38.4157 469.615 33.1854C460.036 14.4649 437.78 3.72319 413.34 6.02438ZM1017.93 6.00369C1006.39 7.17867 994.65 11.9061 986.312 18.7388C983.667 20.9056 979.026 25.7367 977.055 28.3744C973.492 33.1421 970.188 39.5878 968.194 45.6634C967.504 47.7676 966.477 50.6723 965.913 52.1177C964.637 55.3903 963.41 60.1118 962.729 64.3714C962.309 67.0023 962.21 69.2179 962.216 75.8519C962.223 83.0681 962.302 84.5226 962.861 87.7575C964.422 96.7843 966.977 103.47 971.376 110.037C979.174 121.677 990.263 128.619 1005.37 131.314C1008.53 131.879 1009.91 131.96 1016.09 131.947C1022.19 131.934 1023.65 131.844 1026.58 131.296C1028.45 130.946 1031.32 130.478 1032.96 130.257C1046.34 128.448 1056.55 123.884 1064.71 116.062C1071.88 109.196 1076.43 101.069 1078.74 91.0174L1079.43 88.041L1079.45 109.372L1079.47 130.703H1119.17H1158.87V129.994V129.286H1166.1H1173.33V111.285V93.2851H1148.66H1123.99V90.4505V87.6158H1139.44H1154.9V86.9071V86.1984H1162.27H1169.65L1169.58 68.2691L1169.5 50.3398L1146.75 50.2672L1123.99 50.1946V47.3617V44.5287H1141.57H1159.15V43.82V43.1113H1166.38H1173.62V25.1111V7.11092H1128.11H1082.6L1082.52 13.7015L1082.45 20.2922L1080.96 20.3778L1079.47 20.4637L1079.43 36.9607C1079.4 52.4482 1079.38 53.2498 1079.02 50.0563C1078.8 48.1854 1078.36 45.3944 1078.04 43.8537C1073.92 24.4594 1056.87 9.83618 1034.38 6.40848C1030.75 5.85487 1021.6 5.63008 1017.93 6.00369ZM1339.79 5.86819C1324.51 7.27136 1311.51 13.2171 1302.17 23.0832C1296.34 29.2415 1292.27 36.1871 1289.17 45.3003C1288.33 47.7602 1287.14 51.2398 1286.52 53.0327C1285.89 54.8256 1285.07 57.6958 1284.68 59.4107L1283.97 62.5289L1283.95 34.8182L1283.93 7.10723L1263.16 7.18008L1242.38 7.25265L1242.31 13.8433L1242.23 20.4339H1240.82H1239.41L1239.34 34.4939L1239.26 48.5536L1225.54 28.3285C1217.99 17.2044 1211.62 7.87883 1211.38 7.60472C1210.98 7.13813 1209.87 7.1112 1193.92 7.17951L1176.88 7.25265L1176.8 13.8433L1176.72 20.4339H1175.31H1173.9V75.571V130.708L1188.86 130.635L1203.82 130.561L1203.91 129.923L1204 129.286H1211.21H1218.42V111.269C1218.42 101.359 1218.52 93.3109 1218.63 93.3835C1218.75 93.4558 1224.59 101.879 1231.61 112.102L1244.37 130.689L1256.85 130.625L1269.32 130.561L1269.41 129.923L1269.51 129.286H1276.72H1283.93L1283.96 108.947C1283.98 95.4177 1284.08 88.9875 1284.26 89.7418C1284.4 90.3654 1284.79 92.0237 1285.12 93.4269C1286.8 100.638 1289.62 106.638 1294.21 112.785C1301.63 122.711 1312.78 129.129 1326.64 131.458C1331.3 132.241 1342.37 132.163 1346.88 131.316C1348.68 130.979 1351.61 130.505 1353.41 130.263C1355.2 130.021 1357.88 129.572 1359.36 129.266C1381.98 124.587 1398.93 106.326 1401.04 84.3559C1401.2 82.6409 1401.4 80.5248 1401.48 79.6535L1401.63 78.0692L1394.6 77.8824C1390.74 77.7797 1381.36 77.6953 1373.76 77.695L1359.94 77.6944L1359.79 78.3322C1359.72 78.6831 1359.46 80.2456 1359.22 81.8047C1358.17 88.6686 1354.73 92.0552 1348.06 92.7962C1344.41 93.2004 1340.64 92.6445 1337.91 91.3003C1333.39 89.0756 1330.38 84.0849 1329.12 76.7023C1328.44 72.6824 1328.44 63.8172 1329.13 60.0168C1330.32 53.4471 1332.65 49.0148 1336.38 46.2116C1337.67 45.2436 1338.06 45.0956 1339.35 45.0956C1341.37 45.0956 1344.93 46.0345 1347.16 47.1513C1348.3 47.7251 1349.74 48.8198 1350.99 50.0563C1353.81 52.8538 1355.12 55.676 1356.13 61.1824L1356.25 61.8202H1371.45H1386.65L1386.51 61.1115L1386.38 60.4029H1394C1400.17 60.4029 1401.61 60.3312 1401.61 60.0233C1401.61 59.0456 1400.72 50.4172 1400.45 48.7807C1397.73 32.3815 1388.22 19.2776 1373.82 12.0654C1368.45 9.37299 1361.95 7.37823 1355.39 6.40168C1352.52 5.97393 1342.41 5.62809 1339.79 5.86819ZM646.487 7.60698C646.345 7.87996 645.371 10.7818 644.322 14.0559C643.273 17.3299 642.313 20.1363 642.19 20.2922C642.066 20.4481 633.85 45.1466 623.932 75.1775C614.015 105.209 605.821 129.987 605.723 130.241C605.56 130.664 606.893 130.703 621.735 130.703H637.924L638.1 130L638.277 129.296L644.661 129.22L651.045 129.144L653.571 120.782C654.96 116.182 656.295 111.749 656.536 110.931L656.975 109.443H668.818H680.661L683.874 120.073L687.088 130.703H703.235H719.383L719.205 129.994L719.027 129.286H724.563H730.098V129.995V130.705L767.318 130.633L804.537 130.561L804.628 129.923L804.719 129.286H811.93H819.142V111.285V93.2851H796.882H774.621L774.55 50.2689L774.478 7.25265L753.706 7.18008L732.934 7.10723V13.7707V20.4339H731.516H730.098V65.2692C730.098 89.9283 730.039 110.045 729.967 109.973C729.895 109.901 722.303 87.0148 713.095 59.1145C703.888 31.2142 696.23 8.09937 696.076 7.74872L695.797 7.11092H671.271C648.201 7.11092 646.73 7.1404 646.487 7.60698ZM884.224 7.39297C883.833 8.0251 878.714 23.3355 861.573 75.1432C851.694 104.999 843.521 129.714 843.41 130.065L843.208 130.703H859.386H875.563L875.741 129.994L875.919 129.286H882.247H888.575L888.866 128.364C889.026 127.857 889.938 124.828 890.893 121.632C891.848 118.436 893.074 114.386 893.617 112.632L894.605 109.443H906.341C913.012 109.443 918.146 109.553 918.236 109.699C918.322 109.839 919.487 113.57 920.822 117.99C922.158 122.41 923.57 127.078 923.959 128.364L924.667 130.703H940.82H956.972L956.794 129.994L956.616 129.286H965.154C969.85 129.286 973.692 129.188 973.692 129.069C973.692 128.95 964.659 101.492 953.619 68.0525L933.546 7.25265L908.973 7.18008C892.725 7.13246 884.34 7.20446 884.224 7.39297ZM1394.82 7.46355C1394.83 7.65943 1396.35 10.6259 1398.2 14.0559L1401.57 20.2922L1398.62 20.4339L1395.68 20.5756L1415.8 58.1351L1435.92 95.6946L1435.99 113.128L1436.07 130.561L1450.89 130.635L1465.7 130.708V129.997V129.286H1473.08H1480.45V109.666V90.0468L1502.57 48.7645C1514.73 26.059 1524.69 7.39835 1524.69 7.29659C1524.69 7.19454 1514.22 7.11092 1501.42 7.11092H1478.15L1477.72 7.89045C1477.49 8.31934 1473.4 16.7701 1468.65 26.6702C1463.89 36.5703 1459.91 44.7603 1459.8 44.8697C1459.69 44.9794 1455.51 36.5604 1450.51 26.1608L1441.42 7.25265L1418.12 7.18008C1399.56 7.12254 1394.81 7.18008 1394.82 7.46355ZM69.2155 6.74086C69.0935 7.16974 61.1031 36.8273 51.4589 72.6471L33.9237 137.774H30.5738C28.7311 137.774 27.2236 137.7 27.2236 137.611C27.2236 137.479 60.093 15.2242 60.5802 13.5441C60.7152 13.0789 60.1511 13.048 51.5068 13.048H42.2893L42.8491 10.9929C43.1571 9.86269 43.5992 8.26818 43.8314 7.44953L44.2543 5.96132H56.8457H69.4372L69.2155 6.74086ZM131.759 6.59912C129.548 15.0626 96.4604 137.541 96.3571 137.645C96.2757 137.726 94.7404 137.756 92.9454 137.712L89.6814 137.632L106.371 75.6944C115.55 41.6287 123.063 13.5974 123.067 13.4024C123.072 13.1263 121.073 13.048 113.999 13.048C109.008 13.048 104.924 12.9678 104.924 12.87C104.924 12.7719 105.327 11.1774 105.82 9.32665L106.715 5.96132H119.32H131.926L131.759 6.59912ZM426.892 11.9455C442.381 13.6284 455.98 21.6996 463.052 33.4071C465.622 37.6619 467.675 43.3492 468.217 47.7177L468.419 49.3476L463.353 49.3448L458.287 49.3422L457.333 46.7964C455.37 41.5576 452.195 36.8889 447.56 32.4263C439.407 24.5765 428.538 20.0127 415.608 19.0092C404.264 18.1285 392.273 20.7412 382.997 26.1146L381.437 27.018L382.855 25.5451C384.463 23.8744 388.521 20.7627 391.131 19.1988C397.04 15.6578 405.652 12.765 412.631 11.9766C415.867 11.6113 423.657 11.5942 426.892 11.9455ZM1031.48 11.9523C1050.31 14.042 1065.48 24.964 1071.04 40.4243C1071.81 42.5637 1072.95 47.4665 1072.95 48.6341V49.3476H1067.89H1062.84L1062.33 47.7424C1061.53 45.19 1058.93 40.3458 1056.95 37.7186C1053.03 32.4986 1046.5 27.1578 1040.53 24.2732C1032.08 20.2003 1021.58 18.2742 1011.79 19.001C1003.7 19.6011 997.114 21.3821 990.198 24.8393C986.338 26.7688 986.189 26.819 987.078 25.8884C993.698 18.9675 1006.13 13.2293 1017.22 11.9766C1020.48 11.6084 1028.27 11.5951 1031.48 11.9523ZM1353.27 12.0716C1362.17 13.0992 1370.81 16.2763 1377.29 20.9124C1380.1 22.9233 1384.54 27.2541 1386.51 29.9131C1391.09 36.1085 1394.08 43.9966 1395.04 52.3949L1395.27 54.4501H1390.37H1385.47L1385.17 53.2453C1385.01 52.5826 1384.49 50.8469 1384.03 49.3879C1379.53 35.3287 1367.71 24.7177 1352.13 20.7426C1342.51 18.29 1331.29 18.2265 1321.93 20.5714C1317.76 21.6145 1314.48 22.8615 1310.3 24.9821L1306.47 26.9262L1308.74 24.786C1315.86 18.0686 1326.85 13.2233 1337.81 11.9642C1341.33 11.5602 1349.31 11.6155 1353.27 12.0716ZM263.752 13.7446C272.19 15.0783 279.215 17.5332 285.304 21.2764C296.244 28.0019 304.077 39.4095 306.974 52.8357C308.335 59.1468 308.83 69.2763 308.119 76.3179C306.768 89.7095 301.451 101.355 293.056 109.312C290.9 111.355 287.11 114.32 286.91 114.119C286.847 114.057 287.371 113.33 288.072 112.504C291.431 108.552 294.602 102.735 296.501 97.0411C298.802 90.1432 299.696 84.202 299.71 75.7101C299.72 69.4685 299.421 66.2293 298.329 60.7555C294.334 40.7404 280.345 26.5458 260.155 22.0191C253.673 20.566 251.192 20.4339 230.362 20.4339H211.148V16.7318V13.03L235.89 13.1408C257.65 13.2381 261.008 13.3109 263.752 13.7446ZM352.37 68.1982V123.333H347.975H343.579V71.8833V20.4339H332.945H322.311V16.7488V13.0637H337.34H352.37V68.1982ZM513.727 68.1982V123.333H509.331H504.936V71.8833V20.4339H494.302H483.667V16.7488V13.0637H498.697H513.727V68.1982ZM620.636 25.1111V37.1585H616.241H611.845V28.7962V20.4339H568.316H524.786V16.7488V13.0637H572.711H620.636V25.1111ZM709.776 67.7691C719.713 97.8572 727.919 122.67 728.011 122.91C728.158 123.294 727.515 123.336 722.562 123.268L716.947 123.191L708.895 98.8128C704.467 85.4047 696.828 62.2845 691.92 47.4342L682.995 20.4339H665.681C651.947 20.4339 648.394 20.3605 648.499 20.0796C648.572 19.8848 649.124 18.2265 649.725 16.3945L650.819 13.0637H671.263H691.708L709.776 67.7691ZM768.665 56.1509V99.238H790.926H813.186V111.285V123.333H808.933H804.679V114.972V106.612L782.347 106.539L760.015 106.466L759.944 63.4502L759.872 20.4339H749.38H738.889V16.7488V13.0637H753.777H768.665V56.1509ZM942.903 54.2389C950.378 76.8837 958.563 101.693 961.09 109.372L965.685 123.333L960.118 123.329L954.551 123.326L943.683 90.3762C937.705 72.2538 930.064 49.103 926.702 38.9302L920.589 20.4339H903.328C893.834 20.4339 886.066 20.3384 886.066 20.2216C886.066 20.1051 886.587 18.4468 887.224 16.5365L888.382 13.0637L908.847 13.0652L929.312 13.0666L942.903 54.2389ZM1167.94 25.1111V37.1585H1163.55H1159.15V28.7962V20.4339H1123.71H1088.26V16.7488V13.0637H1128.1H1167.94V25.1111ZM1223.74 36.0955L1239.4 59.1273L1239.4 68.5526C1239.41 77.3474 1239.37 77.977 1238.91 77.9634C1238.58 77.9538 1232.08 68.607 1218.96 49.2623L1199.5 20.5756L1191.09 20.5005L1182.69 20.4254V16.7446V13.0637H1195.39H1208.09L1223.74 36.0955ZM1277.97 68.1982V123.333H1273.72H1269.47V71.8833V20.4339H1258.83H1248.2V16.7488V13.0637H1263.09H1277.97V68.1982ZM1447.32 33.0482C1452.58 43.9617 1456.89 53.0517 1456.9 53.2481C1456.91 53.4446 1455.67 56.2186 1454.15 59.4127C1452.35 63.1868 1451.23 65.2181 1450.96 65.2142C1450.67 65.2102 1446.9 57.6524 1439.78 42.8211L1429.03 20.4339H1418.65H1408.27L1406.43 16.9677C1405.42 15.0613 1404.55 13.4019 1404.5 13.2803C1404.44 13.1587 1411.91 13.0921 1421.08 13.1323L1437.76 13.2055L1447.32 33.0482ZM1513.67 15.6858C1512.9 17.1278 1503.76 34.1696 1493.38 53.556L1474.49 88.8044V106.068V123.333H1470.1H1465.7V109.757V96.1811L1485.96 58.3783L1506.21 20.5756L1492.2 20.4339L1478.19 20.2922L1479.94 16.678L1481.68 13.0637H1498.38H1515.08L1513.67 15.6858ZM587.457 83.9307V123.333H583.062H578.666V83.9307V44.5287H583.062H587.457V83.9307ZM1118.32 50.3398V56.1509H1141H1163.69V68.1982V80.2456H1159.3H1154.9V71.8833V63.521H1132.21H1109.53V54.0248V44.5287H1113.92H1118.32V50.3398ZM418.672 45.8139C422.833 47.0141 426.483 50.0007 428.222 53.6277L429.228 55.7257L422.135 55.8013L415.041 55.877V62.3772V68.8771L413.552 68.963L412.064 69.0486V79.6787V90.3087L421.705 90.4505L431.347 90.5922L429.87 91.2328C427.047 92.4571 425.048 92.8106 420.854 92.8279C417.802 92.8404 416.491 92.7256 415.183 92.3307C410.78 91.0027 407.849 88.424 405.794 84.0724C403.667 79.5693 402.847 75.0848 402.847 67.9587C402.847 61.1246 403.897 55.8297 406.056 51.769C407.186 49.6453 409.911 46.7006 411.685 45.6881C412.941 44.9715 413.173 44.9329 415.045 45.133C416.152 45.2512 417.784 45.5577 418.672 45.8139ZM1023.58 45.9225C1028.07 47.2894 1031.73 50.5654 1033.33 54.6627L1033.81 55.8674H1026.72H1019.63V62.3871V68.9069H1018.21H1016.8V79.6787V90.4505L1026.37 90.4638L1035.94 90.4768L1034.6 91.1753C1032.33 92.3551 1029.81 92.8089 1025.45 92.8265C1021.03 92.8444 1019.35 92.4926 1016.43 90.9465C1013.39 89.3319 1010.65 85.6193 1009.17 81.0878C1008.09 77.7656 1007.7 75.0959 1007.53 69.7573C1007.21 59.5145 1009.06 52.6475 1013.37 48.1103C1014.24 47.1961 1015.55 46.1036 1016.29 45.683C1017.54 44.9689 1017.76 44.9326 1019.67 45.137C1020.8 45.2572 1022.56 45.6107 1023.58 45.9225ZM241.138 71.8125L241.21 97.8206H248.957C257.115 97.8206 260.25 97.5099 263.551 96.3747C264.415 96.0779 265.159 95.8729 265.205 95.9194C265.252 95.9659 264.722 96.7279 264.027 97.6123C260.837 101.675 255.913 104.042 248.871 104.899C247.55 105.059 243.306 105.191 239.442 105.191H232.416V75.4193V45.6478L236.741 45.726L241.065 45.8043L241.138 71.8125ZM253.081 46.9622C259.494 48.5774 263.475 51.6449 266.129 57.0146C267.793 60.3842 268.786 63.9652 269.251 68.2802C269.877 74.0958 269.479 84.4302 268.559 86.2197C267.963 87.3794 265.955 89.0272 264.07 89.9042C260.691 91.4763 256.646 92.1374 250.352 92.1465L246.879 92.1513V69.0209V45.8905L248.651 46.0917C249.626 46.2023 251.619 46.5943 253.081 46.9622ZM400.73 49.4233C398.363 54.0231 397.237 59.0184 396.98 66.0722C396.662 74.796 398.193 82.7648 401.23 88.1816C402.871 91.107 406.586 94.8241 409.228 96.1813C413.126 98.1849 414.811 98.5293 420.713 98.5293C424.91 98.5293 426.373 98.4233 428.028 97.9995C429.166 97.7081 430.156 97.5275 430.227 97.5984C430.559 97.9303 427.873 101.062 426.284 102.196C424.122 103.738 422.423 104.489 419.437 105.223C416.53 105.938 410.524 106.226 407.668 105.787C400.935 104.752 395.905 101.369 392.654 95.689C389.242 89.729 387.602 80.4015 388.346 71.1928C389.106 61.7836 391.678 55.2398 396.407 50.6864C397.871 49.2762 401.671 46.6601 401.909 46.8985C401.953 46.9421 401.423 48.0785 400.73 49.4233ZM1006.02 48.1732C1004.27 51.0164 1002.76 55.5502 1002 60.2611C1001.41 63.9697 1001.56 73.4673 1002.28 77.4109C1004.33 88.6723 1009.31 95.1733 1017.93 97.8654C1019.85 98.465 1020.58 98.5287 1025.45 98.5239C1029.76 98.5194 1031.22 98.4151 1032.77 97.9992C1033.83 97.714 1034.76 97.5386 1034.83 97.61C1035.17 97.9482 1032.86 100.673 1031.1 102.005C1027.57 104.685 1022.58 106.048 1016.37 106.03C1003.39 105.992 995.677 98.4808 993.368 83.6325C992.735 79.5628 992.742 71.2078 993.382 67.0644C994.793 57.9234 999.162 50.7721 1005.31 47.5405C1006.09 47.1312 1006.76 46.7964 1006.8 46.7964C1006.83 46.7964 1006.48 47.4161 1006.02 48.1732ZM1326.27 49.8437C1323.75 55.0221 1322.78 60.1166 1322.78 68.2595C1322.78 76.5756 1323.79 82.0051 1326.32 87.1906C1328.85 92.3965 1332.99 96.0135 1338.54 97.8728C1340.31 98.465 1341 98.5282 1345.61 98.5165C1349.37 98.5072 1351.1 98.3881 1352.2 98.0621C1353.02 97.8189 1353.69 97.6741 1353.69 97.7401C1353.69 97.8062 1353.31 98.4139 1352.84 99.0909C1350.93 101.868 1347.15 104.34 1343.2 105.393C1340.55 106.097 1333.28 106.09 1330.72 105.381C1324.72 103.718 1320.18 99.8953 1317.37 94.1248C1316.33 92.0042 1315.25 88.5011 1314.69 85.4541C1313.98 81.6165 1313.82 72.4347 1314.38 68.1665C1315.68 58.3571 1319.81 51.0226 1325.94 47.6443C1326.77 47.1836 1327.52 46.8044 1327.61 46.8015C1327.69 46.7987 1327.09 48.1678 1326.27 49.8437ZM664.381 55.5451L665.768 60.1829L662.911 69.6275C661.339 74.8217 660.054 79.2696 660.054 79.5112C660.054 79.8916 660.844 79.961 665.93 80.0274L671.807 80.1039L672.827 83.5055L673.846 86.9071L662.652 86.9814C656.496 87.0219 651.398 86.9953 651.325 86.9216C651.251 86.8482 653.455 79.2886 656.223 70.123C658.991 60.9571 661.439 52.8439 661.663 52.0939C662.365 49.7456 662.819 50.3219 664.381 55.5451ZM901.39 53.6705C901.876 55.2684 902.52 57.3851 902.819 58.3738L903.362 60.1716L900.547 69.4699C898.999 74.5836 897.691 79.0046 897.642 79.294C897.557 79.7892 897.902 79.8289 903.473 79.9622L909.394 80.1039L910.393 83.438C910.943 85.2718 911.329 86.8357 911.251 86.9136C911.173 86.9916 906.075 87.0219 899.923 86.9814L888.736 86.9071L894.191 68.9069C897.191 59.0068 899.653 50.8747 899.662 50.8358C899.671 50.797 899.864 50.765 900.091 50.765C900.369 50.765 900.795 51.7197 901.39 53.6705ZM474.876 55.5839C474.876 55.7659 472.135 55.8674 467.22 55.8674C462.304 55.8674 459.563 55.7659 459.563 55.5839C459.563 55.4019 462.304 55.3005 467.22 55.3005C472.135 55.3005 474.876 55.4019 474.876 55.5839ZM1079.47 55.5839C1079.47 55.7659 1076.73 55.8674 1071.81 55.8674C1066.9 55.8674 1064.15 55.7659 1064.15 55.5839C1064.15 55.4019 1066.9 55.3005 1071.81 55.3005C1076.73 55.3005 1079.47 55.4019 1079.47 55.5839ZM469.769 70.5368C469.766 82.8025 469.188 88.1138 467.194 94.2155C464.197 103.381 459.149 110.055 450.221 116.653C449.649 117.075 449.864 116.75 452.205 113.642C455.7 109.005 458.578 102.431 459.813 96.2616C460.773 91.4729 460.981 88.2856 460.981 78.4141V68.9069H440.847H420.713V65.3636V61.8202H445.242H469.772L469.769 70.5368ZM1074.36 70.8203C1074.36 75.7702 1074.23 81.2236 1074.07 82.9386C1072.97 94.5772 1068.9 103.595 1061.33 111.147C1058.6 113.866 1054.51 117.208 1054.51 116.716C1054.51 116.643 1054.98 116.029 1055.55 115.352C1058.38 111.993 1061.34 106.59 1062.9 101.921C1065.1 95.3516 1065.57 91.2229 1065.57 78.5559V68.9069H1045.58H1025.59V65.3636V61.8202H1049.98H1074.36L1074.36 70.8203ZM669.512 72.5211L669.948 74.0093H668.799C667.854 74.0093 667.681 73.9274 667.827 73.5476C667.924 73.2936 668.147 72.52 668.321 71.8283C668.691 70.3583 668.918 70.4898 669.512 72.5211ZM907.077 72.4599L907.557 74.0093H906.453C905.846 74.0093 905.35 73.9249 905.35 73.8217C905.35 73.3307 906.32 70.6327 906.45 70.7625C906.531 70.8438 906.814 71.6075 907.077 72.4599ZM1208.46 78.4102L1212.47 84.2283V103.781V123.333H1208.21H1203.96V97.9624C1203.96 83.7133 1204.07 72.592 1204.21 72.592C1204.34 72.592 1206.26 75.2101 1208.46 78.4102ZM1395.09 84.7859C1395.09 87.719 1393.08 94.4726 1390.91 98.8128C1388.76 103.108 1385.14 108.014 1381.57 111.467C1379.76 113.216 1375.47 116.574 1375.29 116.387C1375.22 116.323 1375.71 115.659 1376.37 114.912C1377.97 113.092 1380.73 108.948 1381.96 106.491C1384.07 102.3 1385.92 96.4532 1386.4 92.4081L1386.56 91.1061L1374.6 90.9046C1368.02 90.7937 1362.6 90.6645 1362.55 90.6171C1362.5 90.5698 1362.85 89.7157 1363.32 88.719C1363.8 87.7224 1364.34 86.1738 1364.52 85.2772L1364.86 83.6472H1379.98H1395.09V84.7859ZM1118.32 93.4269V99.238H1142.99H1167.66V111.285V123.333H1163.27H1158.87V114.97V106.608H1134.2H1109.53V97.112V87.6158H1113.92H1118.32V93.4269ZM650.696 109.778C650.696 110.048 648.249 118.347 646.971 122.411L646.681 123.333H643.423C640.454 123.333 640.178 123.289 640.309 122.837C641.2 119.783 644.264 109.818 644.362 109.655C644.588 109.282 650.696 109.4 650.696 109.778ZM888.339 109.655C888.341 109.772 887.426 112.898 886.307 116.6L884.271 123.333H881.057C879.289 123.333 877.843 123.247 877.843 123.142C877.843 123.037 878.761 119.912 879.883 116.197L881.924 109.443H885.13C886.893 109.443 888.337 109.538 888.339 109.655Z" fill="black"/>
</svg>
