<svg width="126" height="18" viewBox="0 0 126 18" fill="none" xmlns="http://www.w3.org/2000/svg">
<path d="M22 0H19.0455V15.23H22V0Z" fill="black"/>
<path d="M15.6515 0.852219H12.697V16.0819H15.6515V0.852219Z" fill="black"/>
<path d="M9.30303 1.80363H6.34848V17.0362H9.30303V1.80363Z" fill="black"/>
<path d="M2.95455 2.76562H0L1.12582e-05 18H2.95456L2.95455 2.76562Z" fill="black"/>
<path d="M101.663 8.39363L96.8209 3.16901H93.9903V15.2658H96.9457V7.54782L101.366 12.1205H101.912L106.257 7.54782V15.2658H109.212V3.16901H106.382L101.663 8.39363Z" fill="black"/>
<path d="M123.292 3.16901L115.967 11.0315V3.16901H113.012V15.2658H115.719L123.045 7.40333V15.2658H126V3.16901H123.292Z" fill="black"/>
<path d="M78.0717 7.5954C78.0717 9.52137 79.1569 11.0385 80.8227 11.6747L77.6991 15.2658H81.3165L84.158 11.9989H87.2327V15.2658H90.1881V3.16901H82.664C79.8587 3.16901 78.0717 5.03155 78.0717 7.5954ZM87.2345 5.8333V9.41036H83.212C81.87 9.41036 81.1501 8.68438 81.1501 7.62007C81.1501 6.55576 81.8953 5.82978 83.212 5.82978L87.2345 5.8333Z" fill="black"/>
<path d="M64.3381 5.58837C64.1572 9.74868 63.2529 12.4341 61.4821 12.4341H61.039V15.3381L61.5111 15.3627C65.0616 15.5548 67.024 12.531 67.3459 5.92669H72.016V15.2658H74.966V3.16901H64.4376L64.3381 5.58837Z" fill="black"/>
<path d="M53.2129 3C49.2157 3 46.3399 5.68544 46.3399 9.21668C46.3399 12.8695 49.4689 15.4598 53.2129 15.4598C57.1125 15.4598 60.142 12.725 60.142 9.21668C60.142 5.70834 57.1125 3 53.2129 3ZM53.2129 12.5559C50.9539 12.5559 49.4147 11.1286 49.4147 9.21668C49.4147 7.25723 50.9557 5.8687 53.2129 5.8687C55.4702 5.8687 57.0618 7.32066 57.0618 9.21668C57.0618 11.1127 55.4485 12.5559 53.2129 12.5559Z" fill="black"/>
<path d="M43.2055 3.19183H32.7747L32.6753 5.61119C32.527 9.09662 31.5901 12.4111 29.8193 12.4587L29 12.4834V18L31.9807 17.9942V15.2675H42.3355V17.9942H45.3416V12.4587H43.2055V3.19183ZM40.2501 12.4587H33.9432C35.0103 10.8869 35.5818 8.61204 35.6813 5.95128H40.2501V12.4587Z" fill="black"/>
</svg>
