<svg width="72" height="36" viewBox="0 0 72 36" fill="none" xmlns="http://www.w3.org/2000/svg">
<path d="M62 10.0006V19H58.9624V12.6871H56.0376V19H53V10H62V10.0006Z" fill="black"/>
<path fill-rule="evenodd" clip-rule="evenodd" d="M46.064 20C48.8966 20 51 18.2165 51 15.5128C51 12.896 49.4481 11.1969 46.8545 11.1969C45.6575 11.1969 44.6698 11.6295 43.9259 12.3761C44.1035 10.833 45.3742 9.70651 46.7732 9.70651C47.0961 9.70651 49.5269 9.70124 49.5269 9.70124L50.9015 7C50.9015 7 47.8497 7.07134 46.431 7.07134C43.1895 7.12934 41 10.155 41 13.8299C41 18.1111 43.1354 20 46.064 20ZM46.0812 13.5895C47.133 13.5895 47.8621 14.2991 47.8621 15.5125C47.8621 16.6046 47.2142 17.5044 46.0812 17.5069C44.9975 17.5069 44.2684 16.6732 44.2684 15.5311C44.2684 14.3174 44.9975 13.5895 46.0812 13.5895Z" fill="black"/>
<path d="M38.7434 16.1604C38.7434 16.1604 38.0349 16.5686 36.9767 16.6459C35.7602 16.682 34.6762 15.9139 34.6762 14.5491C34.6762 13.2178 35.6327 12.4548 36.9461 12.4548C37.7513 12.4548 38.8167 13.0128 38.8167 13.0128C38.8167 13.0128 39.5962 11.5827 40 10.8675C39.2606 10.3072 38.2757 10 37.1302 10C34.2392 10 32 11.8844 32 14.5322C32 17.2137 34.1046 19.0543 37.1302 18.9988C37.9759 18.9673 39.1426 18.6704 39.8537 18.2137L38.7434 16.1604Z" fill="black"/>
<path d="M0 8L4 15.6687V20.3464L0.00467933 28L0 8Z" fill="#5B57A2"/>
<path d="M17 12.6354L20.9389 10.0082L29 10L17 18V12.6354Z" fill="#D90751"/>
<path d="M15.9789 7.74402L16 18L12 15.3309V0L15.9789 7.74402Z" fill="#FAB718"/>
<path d="M29 9.99242L20.5475 10L16.3944 7.57122L12 0L29 9.99242Z" fill="#ED6F26"/>
<path d="M16 28.423V23.5594L12 21L12.0022 36L16 28.423Z" fill="#63B22F"/>
<path d="M20.6949 26L4.33436 15.8426L0 8L29 25.9897L20.6949 26Z" fill="#1487C9"/>
<path d="M12 36L16.4202 28.4212L20.5449 26.0099L29 26L12 36Z" fill="#017F36"/>
<path d="M0 28L12 20.5191L7.96565 18L4.21407 20.3406L0 28Z" fill="#984995"/>
<path d="M34.1588 24.6794C34.0586 24.7849 33.9267 24.8645 33.7685 24.9182C33.6062 24.9727 33.4326 25.0005 33.2574 24.9999C33.0831 25.0018 32.9098 24.9778 32.7459 24.9291C32.5986 24.8849 32.464 24.8161 32.3506 24.727C32.2386 24.6377 32.1506 24.5299 32.0925 24.4107C32.0295 24.28 31.9982 24.1405 32.0001 24C32.0001 23.8604 32.0292 23.7312 32.0897 23.6087C32.1476 23.486 32.2319 23.3808 32.3374 23.2924C32.443 23.2022 32.5695 23.1335 32.7117 23.0797C32.8567 23.028 33.0149 23.0001 33.1888 23.0001C33.3761 23.0001 33.5499 23.0195 33.7081 23.058C33.8663 23.0968 34.0006 23.1614 34.1112 23.2518L33.9189 23.5206C33.8259 23.4511 33.7163 23.3982 33.5972 23.3655C33.484 23.3354 33.3657 23.3203 33.2467 23.3206C33.1415 23.3206 33.0412 23.3376 32.9438 23.3699C32.8478 23.4018 32.7601 23.4486 32.6854 23.5077C32.6091 23.5685 32.5489 23.6417 32.5088 23.7227C32.464 23.8064 32.443 23.899 32.443 24.0021C32.443 24.1075 32.4665 24.2021 32.5113 24.2838C32.5564 24.3678 32.6168 24.4388 32.6932 24.4988C32.7697 24.5593 32.8593 24.6042 32.962 24.6345C33.065 24.6668 33.1731 24.6818 33.289 24.6818C33.4312 24.6818 33.5606 24.658 33.6711 24.6128C33.7807 24.5691 33.8791 24.5086 33.9612 24.4344L34.1588 24.6794ZM34.7016 24.9547V23.0409H35.1182V24.4667L36.4729 23.0409H36.8895V24.9549H36.4729V23.5291L35.1182 24.9549L34.7016 24.9547ZM39.649 24.6794C39.5465 24.7858 39.412 24.8681 39.259 24.9182C39.0966 24.9727 38.9228 25.0005 38.7475 24.9999C38.5733 25.0018 38.4002 24.9778 38.2363 24.9291C38.089 24.885 37.9543 24.8161 37.8407 24.727C37.7287 24.6377 37.6408 24.5299 37.5826 24.4107C37.5197 24.28 37.4883 24.1405 37.4902 24C37.4902 23.8604 37.5194 23.7312 37.5798 23.6087C37.6381 23.486 37.7223 23.3808 37.8276 23.2924C37.9331 23.2022 38.0597 23.1335 38.2019 23.0797C38.3521 23.0251 38.5148 22.998 38.6789 23.0001C38.8662 23.0001 39.0401 23.0195 39.1982 23.058C39.3564 23.0968 39.4908 23.1614 39.6017 23.2518L39.409 23.5206C39.3162 23.451 39.2067 23.3982 39.0877 23.3655C38.9744 23.3355 38.8561 23.3203 38.7372 23.3206C38.5278 23.3211 38.3267 23.3881 38.1756 23.5077C38.0999 23.5689 38.0398 23.642 37.9989 23.7227C37.9541 23.8064 37.9331 23.899 37.9331 24.0021C37.9331 24.1075 37.9569 24.2021 38.0017 24.2838C38.0465 24.3678 38.107 24.4388 38.1834 24.4988C38.2598 24.5593 38.3497 24.6042 38.4524 24.6345C38.5552 24.6644 38.6632 24.6818 38.7791 24.6818C38.9217 24.6818 39.0482 24.658 39.1613 24.6128C39.2708 24.5691 39.3693 24.5086 39.4513 24.4344L39.649 24.6794ZM39.8626 23.0409H42V23.3808H41.1408V24.9547H40.7242V23.3808H39.8651V23.0409H39.8626Z" fill="black"/>
<path fill-rule="evenodd" clip-rule="evenodd" d="M43.5029 24.9376C43.6404 24.8968 43.7572 24.8342 43.8579 24.7484L43.7479 24.4817C43.6815 24.5378 43.5922 24.5851 43.4846 24.6238C43.3768 24.6626 43.2554 24.6817 43.1225 24.6817C42.9233 24.6817 42.7583 24.6324 42.6276 24.5313C42.4972 24.43 42.4261 24.2884 42.4101 24.1075H43.9771C43.9932 24.0408 44 23.9656 44 23.8774C44 23.7462 43.9747 23.628 43.9243 23.5205C43.8774 23.4161 43.8089 23.3217 43.7228 23.243C43.6356 23.1649 43.5327 23.1043 43.4204 23.0646C43.3028 23.0213 43.1776 22.9994 43.0515 23C42.8819 23 42.733 23.0279 42.6025 23.0796C42.4793 23.1289 42.3677 23.2013 42.2748 23.2926C42.1845 23.3834 42.1151 23.491 42.0711 23.6087C42.0227 23.7339 41.9986 23.8665 42.0001 24C42.0001 24.1506 42.0276 24.2881 42.0779 24.4109C42.1269 24.5298 42.2019 24.6375 42.2979 24.727C42.3918 24.8148 42.5062 24.8818 42.6415 24.9291C42.7863 24.9778 42.9392 25.0018 43.0929 24.9999C43.2321 24.9991 43.3703 24.9779 43.5029 24.9376ZM42.5865 23.4644C42.6987 23.3678 42.8476 23.3205 43.0354 23.3205C43.2118 23.3205 43.354 23.3657 43.4571 23.4562C43.5603 23.5464 43.615 23.6712 43.6243 23.8302H42.3872C42.4047 23.6894 42.4756 23.5593 42.5865 23.4644Z" fill="black"/>
<path d="M45 23H45.3032L46.0233 23.9911L46.7053 23H47V25H46.6675V23.5417L46.019 24.4696H46.0063L45.3327 23.5415V24.9997H45V23Z" fill="black"/>
<path fill-rule="evenodd" clip-rule="evenodd" d="M48.5281 23.454C48.4045 23.4896 48.2865 23.5453 48.1779 23.6193L48.2859 23.9735C48.3787 23.9229 48.4714 23.8807 48.5642 23.8443C48.6569 23.8075 48.7754 23.7907 48.9171 23.7907C49.0303 23.7907 49.1206 23.8106 49.1901 23.8497C49.2596 23.8861 49.311 23.9425 49.3471 24.01C49.3833 24.0774 49.4065 24.1614 49.4194 24.2596C49.4322 24.3578 49.4374 24.4644 49.4374 24.5797C49.3542 24.5158 49.2592 24.4726 49.1592 24.4532C49.0625 24.432 48.9643 24.4208 48.8657 24.4195C48.7445 24.4195 48.6312 24.4394 48.5228 24.4728C48.4148 24.5065 48.3221 24.5571 48.2474 24.6246C48.1711 24.692 48.1095 24.7773 48.0671 24.8742C48.0217 24.9804 47.9988 25.0966 48 25.214C48 25.4582 48.0646 25.6492 48.1932 25.7841C48.3221 25.9187 48.4919 25.9858 48.7031 25.9858C48.8938 25.9858 49.046 25.9494 49.1617 25.8765C49.2777 25.8033 49.3704 25.7193 49.4374 25.6238V25.9467H49.8185V24.4141C49.8185 24.0882 49.7542 23.8359 49.6229 23.6588C49.4941 23.482 49.2648 23.3923 48.9404 23.3923C48.7959 23.3923 48.6594 23.4145 48.5281 23.454ZM49.2085 25.4781C49.1157 25.551 48.9945 25.5844 48.8452 25.5844C48.7139 25.5844 48.6107 25.5479 48.5388 25.4778C48.4665 25.4049 48.4304 25.3094 48.4304 25.1914C48.4304 25.1215 48.4433 25.0625 48.4717 25.0092C48.5002 24.9559 48.5388 24.9137 48.5825 24.88C48.6304 24.8447 48.6836 24.819 48.7396 24.8041C48.7989 24.7872 48.858 24.7788 48.9198 24.7788C49.121 24.7788 49.2933 24.8321 49.435 24.9444V25.2615C49.3682 25.344 49.2921 25.417 49.2085 25.4781ZM53.412 22.5668C53.4944 22.5249 53.5715 22.4548 53.6437 22.3508L53.4221 22C53.3655 22.0843 53.3012 22.143 53.229 22.1741C53.1524 22.2071 53.0731 22.2315 52.9921 22.2469L52.9149 22.2621C52.8479 22.2749 52.776 22.2891 52.6985 22.3033C52.5743 22.3286 52.4533 22.37 52.3379 22.4268C52.1549 22.5138 52.0083 22.6315 51.8975 22.7803C51.7867 22.9291 51.6991 23.0974 51.6398 23.283C51.5796 23.4709 51.539 23.6658 51.5189 23.8639C51.498 24.0663 51.4879 24.2596 51.4879 24.4448C51.4879 24.6836 51.5161 24.8996 51.5727 25.0932C51.6297 25.2872 51.7092 25.4498 51.8148 25.5817C51.9204 25.7166 52.0469 25.8178 52.1962 25.8907C52.3456 25.9636 52.513 26 52.701 26C52.8736 26 53.0334 25.9636 53.1776 25.8961C53.3165 25.8313 53.4426 25.7369 53.5485 25.6185C53.6514 25.5031 53.734 25.3654 53.7907 25.2113C53.8497 25.0568 53.8782 24.8911 53.8782 24.717C53.8782 24.5291 53.8525 24.3581 53.8035 24.2063C53.7584 24.0616 53.6865 23.9288 53.5923 23.8163C53.4979 23.7057 53.3827 23.6194 53.2547 23.5633C53.1137 23.5021 52.9633 23.4716 52.8118 23.4736C52.7138 23.4736 52.6186 23.4877 52.5259 23.5157C52.4357 23.5438 52.3491 23.5843 52.2682 23.6365C52.1897 23.6861 52.1178 23.7474 52.0545 23.8187C51.9927 23.8892 51.9413 23.9678 51.9051 24.0575H51.8947C51.9027 23.9425 51.9155 23.8247 51.9385 23.704C51.9618 23.5832 51.9951 23.4678 52.0392 23.3585C52.083 23.2492 52.1396 23.1507 52.2091 23.061C52.2836 22.9704 52.3749 22.8986 52.4769 22.8505C52.5891 22.7916 52.7077 22.7492 52.8298 22.7243L52.9106 22.7081C52.9911 22.6919 53.068 22.6764 53.1414 22.6595C53.2394 22.6373 53.3294 22.6086 53.412 22.5668ZM51.9798 24.967C51.94 24.8253 51.9209 24.6775 51.9232 24.5291C51.9405 24.444 51.9719 24.3631 52.0159 24.2906C52.0597 24.2147 52.1163 24.1476 52.1834 24.0882C52.3347 23.9576 52.5217 23.8874 52.7138 23.8892C52.9535 23.8892 53.1338 23.9705 53.2599 24.1307C53.3863 24.2933 53.4481 24.4954 53.4481 24.7396C53.4481 24.8604 53.4273 24.9701 53.3915 25.0709C53.3567 25.1704 53.3041 25.2612 53.2369 25.3379C53.1696 25.4145 53.0891 25.4755 53 25.5172C52.9073 25.5621 52.8066 25.5847 52.6933 25.5847C52.5801 25.5847 52.4769 25.5594 52.3817 25.5088C52.2871 25.4592 52.2035 25.3874 52.1368 25.2983C52.067 25.1991 52.0139 25.0869 51.9798 24.967ZM57 23.4456H56.5929V25.944H57V23.4456ZM54.4653 23.4456H54.8724V24.1952H55.2486C55.4261 24.1952 55.5703 24.2205 55.6863 24.268C55.8023 24.3159 55.895 24.3804 55.9645 24.459C56.034 24.5376 56.083 24.6303 56.1114 24.7339C56.1396 24.8378 56.1552 24.9444 56.1552 25.0568C56.1552 25.1691 56.1396 25.276 56.1062 25.3826C56.0753 25.4892 56.0211 25.5817 55.9489 25.666C55.877 25.7504 55.779 25.8178 55.6553 25.8684C55.5317 25.9187 55.3823 25.9467 55.202 25.9467H54.4628V23.4456H54.4653ZM54.8724 24.6131V25.5284H55.1687C55.3722 25.5284 55.5164 25.4892 55.5987 25.4103C55.6814 25.3317 55.7224 25.2197 55.7224 25.0709C55.7224 24.9191 55.6786 24.8044 55.5963 24.7255C55.5112 24.6469 55.3695 24.6074 55.1739 24.6074H54.8724V24.6131Z" fill="black"/>
<path d="M58.9147 24.6794C58.8258 24.7849 58.7089 24.8645 58.5686 24.9182C58.4246 24.9727 58.2706 25.0005 58.1152 24.9999C57.9606 25.0018 57.807 24.9778 57.6615 24.9291C57.5309 24.885 57.4115 24.8162 57.3109 24.727C57.2116 24.6376 57.1335 24.5299 57.0817 24.4107C57.0262 24.28 56.9984 24.1405 57.0001 24C57.0001 23.8605 57.0256 23.7312 57.0795 23.6087C57.1309 23.486 57.2057 23.3808 57.2993 23.2924C57.3929 23.2022 57.5049 23.1335 57.6313 23.0797C57.7645 23.0251 57.9088 22.998 58.0544 23.0001C58.2202 23.0001 58.3747 23.0195 58.515 23.058C58.6553 23.0968 58.7745 23.1614 58.8725 23.2518L58.7019 23.5206C58.6194 23.4511 58.5223 23.3982 58.4166 23.3655C58.3162 23.3354 58.2113 23.3203 58.1058 23.3206C58.0124 23.3206 57.9235 23.3376 57.8368 23.3699C57.7518 23.4018 57.6741 23.4486 57.6079 23.5077C57.5407 23.5688 57.4874 23.642 57.4512 23.7227C57.4115 23.8064 57.3929 23.899 57.3929 24.0021C57.3929 24.1075 57.4137 24.2021 57.4535 24.2838C57.4932 24.3678 57.5471 24.4388 57.6149 24.4988C57.6827 24.5593 57.7621 24.6042 57.8532 24.6345C57.9446 24.6644 58.0405 24.6818 58.1433 24.6818C58.2694 24.6818 58.3816 24.658 58.4822 24.6128C58.5794 24.5691 58.6667 24.5086 58.7394 24.4344L58.9147 24.6794ZM59.1039 23.041H61V23.3808H60.2377V24.9547H59.8685V23.3808H59.1064V23.041H59.1039Z" fill="black"/>
<path fill-rule="evenodd" clip-rule="evenodd" d="M62.3792 23.0462H62V26H62.3792V24.9963C62.4559 25.0446 62.5471 25.0791 62.6526 25.102C62.7581 25.1249 62.8684 25.1362 62.9814 25.1362C63.1493 25.1362 63.3004 25.1064 63.4372 25.0515C63.5685 24.9971 63.6875 24.9183 63.7874 24.8196C63.8857 24.7205 63.9601 24.6057 64.0129 24.4701C64.0656 24.3349 64.0922 24.1899 64.0922 24.0362C64.0922 23.8843 64.0682 23.7444 64.0226 23.618C63.9796 23.4979 63.9128 23.3871 63.8259 23.2919C63.7405 23.1991 63.6347 23.1261 63.5162 23.0783C63.3867 23.0244 63.2469 22.9978 63.106 23.0001C62.9574 23.0001 62.8183 23.0278 62.6863 23.083C62.5543 23.1382 62.451 23.2044 62.3792 23.2872V23.0462ZM62.6432 23.4253C62.7513 23.3701 62.8687 23.3425 62.9959 23.3425C63.1062 23.3425 63.2046 23.3585 63.2936 23.393C63.3799 23.4275 63.4518 23.4758 63.5119 23.5401C63.5718 23.6044 63.6174 23.6781 63.6462 23.7651C63.6773 23.8523 63.6919 23.9467 63.6919 24.05C63.6919 24.1604 63.6725 24.2589 63.6391 24.3509C63.6077 24.438 63.5577 24.5179 63.4926 24.5852C63.4271 24.6518 63.3478 24.7042 63.2599 24.739C63.1619 24.7787 63.0565 24.7983 62.9503 24.7964C62.8474 24.7964 62.7513 24.7851 62.66 24.7622C62.5601 24.7359 62.4654 24.6939 62.3795 24.638V23.6249C62.4465 23.547 62.5354 23.4805 62.6432 23.4253ZM67 23.046H66.6208V25.0904H67V23.046ZM64.6367 23.046H65.0159V23.6594H65.366C65.5317 23.6594 65.666 23.6801 65.774 23.719C65.8821 23.7582 65.9685 23.8109 66.0332 23.8752C66.0979 23.9396 66.1435 24.0155 66.1698 24.1002C66.1963 24.1852 66.2105 24.2725 66.2105 24.3644C66.2105 24.4563 66.1963 24.5438 66.1652 24.6311C66.1364 24.7183 66.0859 24.7939 66.0186 24.8629C65.9516 24.932 65.8604 24.9872 65.7452 25.0286C65.63 25.0697 65.4909 25.0926 65.323 25.0926H64.6344V23.046H64.6367ZM65.0185 24.0014V24.7503H65.2945C65.4838 24.7503 65.6184 24.7183 65.695 24.6537C65.7717 24.5894 65.8102 24.4977 65.8102 24.376C65.8102 24.2518 65.7695 24.1579 65.6928 24.0933C65.6135 24.029 65.4815 23.9967 65.2993 23.9967H65.0185V24.0014Z" fill="black"/>
<path d="M69.1359 24.0945L70 25.2705H69.5042L68.8367 24.352L68.1591 25.2705H67.6888L68.5477 24.1147L67.7398 23H68.236L68.8521 23.8572L69.4783 23H69.949L69.1359 24.0945ZM33.644 28.0765H32.4041V29.9693H32V27.6991H34.0478V29.9693H33.644V28.0765ZM36.3411 28.1019H35.5435L35.5177 28.4845C35.4897 28.8086 35.4515 29.0689 35.3977 29.2675C35.3439 29.4668 35.2774 29.6198 35.2008 29.7268C35.1242 29.8341 35.0346 29.9079 34.9322 29.9438C34.8266 29.9825 34.7149 30.0015 34.6026 29.9999L34.5719 29.6069C34.6153 29.6093 34.6664 29.5992 34.7226 29.5738C34.7791 29.5483 34.8353 29.4922 34.8888 29.4082C34.9425 29.3212 34.9912 29.1988 35.0346 29.0407C35.0781 28.88 35.1063 28.6709 35.1215 28.4079L35.1625 27.7013H36.7451V29.9717H36.3411V28.1019Z" fill="black"/>
<path fill-rule="evenodd" clip-rule="evenodd" d="M38.5808 28.0476C38.436 28.0778 38.3057 28.121 38.1953 28.1751L38.3145 28.448C38.4165 28.4089 38.5185 28.3764 38.6201 28.3483C38.7221 28.3202 38.8528 28.3072 39.0083 28.3072C39.1332 28.3072 39.2321 28.3223 39.3086 28.3525C39.3853 28.3809 39.4419 28.424 39.4816 28.4761C39.521 28.5281 39.5466 28.5931 39.5607 28.6686C39.5748 28.7445 39.5806 28.8267 39.5806 28.9155C39.4889 28.8662 39.3845 28.833 39.2746 28.8182C39.1682 28.8018 39.0601 28.7931 38.9517 28.7921C38.8188 28.7921 38.6939 28.8072 38.575 28.8332C38.4559 28.8593 38.3539 28.8983 38.2717 28.9503C38.1879 29.0023 38.1201 29.068 38.0734 29.1428C38.0237 29.2247 37.9986 29.3143 38.0001 29.4048C38.0001 29.5929 38.0708 29.7404 38.2125 29.8442C38.3539 29.948 38.541 30 38.7733 30C38.983 30 39.15 29.9719 39.2776 29.9155C39.4048 29.8593 39.5068 29.7942 39.5806 29.7206V29.9696H40V28.7877C40 28.5367 39.929 28.3418 39.7846 28.2055C39.6428 28.0689 39.3907 28 39.0339 28C38.8808 28.0001 38.7284 28.0163 38.5808 28.0476ZM39.3314 29.608C39.2298 29.6644 39.0965 29.6904 38.9322 29.6904C38.7848 29.6904 38.6743 29.6623 38.5952 29.608C38.5158 29.5518 38.4761 29.4781 38.4761 29.3874C38.4761 29.3332 38.4902 29.2877 38.5215 29.2466C38.5525 29.2055 38.5952 29.173 38.6434 29.147C38.6915 29.121 38.7508 29.1015 38.8161 29.0884C38.8808 29.0755 38.9475 29.0691 39.0143 29.0692C39.2352 29.0692 39.425 29.1103 39.5809 29.1967V29.4412C39.5073 29.5048 39.4235 29.5609 39.3314 29.608Z" fill="black"/>
<path d="M40 28H42V28.3549H41.1959V30H40.8064V28.3552H40.0026V28H40Z" fill="black"/>
<path fill-rule="evenodd" clip-rule="evenodd" d="M43.7183 29.936C43.8755 29.8943 44.009 29.8303 44.1242 29.7426L43.9984 29.4701C43.9225 29.5274 43.8204 29.5757 43.6972 29.6153C43.5742 29.655 43.4354 29.6745 43.2836 29.6745C43.0557 29.6745 42.8671 29.6241 42.7177 29.5208C42.5684 29.4175 42.4874 29.2725 42.4691 29.0876H44.2605C44.2785 29.0197 44.2866 28.9426 44.2866 28.8526C44.2866 28.7186 44.2577 28.5977 44.2001 28.4878C44.1465 28.3811 44.068 28.2847 43.9695 28.2044C43.8699 28.1245 43.7524 28.0624 43.624 28.0219C43.4896 27.9776 43.3465 27.9552 43.2023 27.9559C43.0084 27.9559 42.8382 27.9844 42.6891 28.0372C42.5481 28.0874 42.4206 28.1615 42.3144 28.2548C42.2112 28.3477 42.1318 28.4577 42.0813 28.5779C42.0261 28.7059 41.9986 28.8414 42.0001 28.9777C42.0001 29.1317 42.0315 29.2722 42.0891 29.3977C42.147 29.5229 42.2332 29.6307 42.3405 29.7207C42.4479 29.8108 42.5789 29.8789 42.7336 29.9273C42.8991 29.9772 43.0737 30.0018 43.2493 29.9999C43.404 29.9999 43.5612 29.9777 43.7183 29.936ZM42.6683 28.4284C42.7965 28.3296 42.9667 28.2813 43.1815 28.2813C43.3859 28.2813 43.5456 28.3296 43.6636 28.4197C43.7812 28.5121 43.8441 28.6394 43.8546 28.8021H42.4404C42.4604 28.6582 42.5414 28.5254 42.6683 28.4284ZM44.4883 28H45.0121L45.8107 28.9429L44.957 29.9558H44.4491L45.3445 28.9426L44.4883 28ZM45.9128 28H46.3267V29.9558H45.9128V28ZM47.8063 29.9558L46.895 28.9426L47.7462 27.9997H47.2327L46.4288 28.9426L47.2931 29.9558H47.8063ZM49.6973 29.936C49.8544 29.8943 49.988 29.8303 50.1031 29.7426L49.9774 29.4701C49.9014 29.5274 49.7994 29.5757 49.6764 29.6153C49.5532 29.655 49.4144 29.6745 49.2625 29.6745C49.0347 29.6745 48.8461 29.6241 48.6967 29.5208C48.5476 29.4175 48.4664 29.2725 48.448 29.0876H50.2394C50.2578 29.0197 50.2656 28.9426 50.2656 28.8526C50.2656 28.7186 50.2369 28.5977 50.1791 28.4878C50.1254 28.3812 50.0471 28.2848 49.9487 28.2044C49.8491 28.1245 49.7315 28.0624 49.603 28.0219C49.4685 27.9776 49.3255 27.9552 49.1813 27.9559C48.9877 27.9559 48.8174 27.9844 48.6681 28.0372C48.5272 28.0875 48.3998 28.1615 48.2937 28.2548C48.1903 28.3475 48.1109 28.4576 48.0605 28.5779C48.0052 28.7059 47.9777 28.8414 47.9793 28.9777C47.9793 29.1317 48.0107 29.2722 48.0683 29.3977C48.1259 29.5229 48.2124 29.6307 48.3198 29.7207C48.4272 29.8108 48.5579 29.8789 48.7126 29.9273C48.8781 29.9772 49.0529 30.0018 49.2286 29.9999C49.3877 29.9989 49.5458 29.9773 49.6973 29.936ZM48.6472 28.4284C48.7757 28.3296 48.946 28.2813 49.1607 28.2813C49.3624 28.2813 49.5245 28.3296 49.6425 28.4197C49.7605 28.5121 49.8233 28.6394 49.8336 28.8021H48.4194C48.4394 28.6582 48.5203 28.5254 48.6472 28.4284ZM51.9446 27.3428C51.7009 27.3428 51.5674 27.2285 51.5466 27H51.1563C51.1563 27.0877 51.1747 27.1669 51.2086 27.2417C51.2428 27.3164 51.2926 27.3801 51.358 27.4329C51.4233 27.4857 51.5074 27.5275 51.6042 27.5602C51.7009 27.5932 51.8136 27.6085 51.9418 27.6085C52.0598 27.6085 52.1647 27.5932 52.259 27.5602C52.3533 27.5296 52.4317 27.4857 52.4999 27.4329C52.5652 27.3801 52.6178 27.3164 52.6542 27.2417C52.691 27.1669 52.7093 27.0877 52.7093 27H52.3218C52.3035 27.2285 52.1749 27.3428 51.9446 27.3428ZM50.8261 27.9997V29.9558H51.24L52.5861 28.4986V29.9558H53V27.9997H52.5861L51.24 29.4569V27.9997H50.8261Z" fill="black"/>
</svg>
