<svg width="63" height="30" viewBox="0 0 63 30" fill="none" xmlns="http://www.w3.org/2000/svg">
<rect width="63" height="30" rx="15" fill="#333333"/>
<path d="M10 8H25V15.5438C25 17.4778 23.9673 19.2653 22.2936 20.2324L17.5 23L12.7064 20.2324C11.0305 19.2653 10 17.4778 10 15.5438V8Z" fill="#FFDD2D"/>
<path fill-rule="evenodd" clip-rule="evenodd" d="M14.0023 12V14.2784C14.3349 13.9256 14.937 13.6876 15.6272 13.6876H16.3763V16.3379C16.3763 17.0436 16.1726 17.6599 15.8694 18H19.1306C18.8296 17.6599 18.6259 17.0436 18.6259 16.3401V13.6897H19.375C20.0653 13.6897 20.6696 13.9277 21 14.2806V12.0021H14L14.0023 12Z" fill="#333333"/>
<path d="M33.2524 12H29V19H31.0691V17.1176H33.2524C33.7661 17.1176 34.2656 17.1029 34.7507 16.9412C35.6925 16.6324 36.3918 15.7647 36.3918 14.5882C36.3918 13.4118 35.7068 12.5588 34.7793 12.2206C34.2656 12.0294 33.7804 12 33.2524 12ZM31.0691 15.4706V13.6912H32.9527C33.3523 13.6912 33.5806 13.7353 33.7661 13.8088C34.0943 13.9412 34.2513 14.25 34.2513 14.5735C34.2513 14.9265 34.0658 15.2647 33.709 15.3824C33.5378 15.4412 33.338 15.4706 32.9527 15.4706H31.0691Z" fill="white"/>
<path d="M39.3577 16.4412L40.3424 13.6176H40.4993L41.4839 16.4412H39.3577ZM38.844 17.9853H41.9834L42.3829 19H44.7089L41.9263 12H38.9011L36.1185 19H38.4588L38.844 17.9853Z" fill="white"/>
<path d="M49.7454 12L48.0615 15.1912H47.9902L46.2921 12H43.8805L46.9485 17.1471V19H49.089V16.9706L52 12H49.7454Z" fill="white"/>
</svg>
