<svg width="45" height="22" viewBox="0 0 45 22" fill="none" xmlns="http://www.w3.org/2000/svg">
<path d="M22.8315 19.0732C21.9811 19.0151 21.0006 18.8623 20.2272 18.6327C20.0823 18.5896 19.4825 18.3636 19.33 18.2918C16.6375 17.0132 14.7619 14.222 14.7619 10.9839C14.7619 6.54238 18.2864 2.92463 22.6215 2.92463C26.918 2.92463 30.4188 6.48068 30.479 10.8719H33.3184C33.2583 4.87629 28.4844 0.0172195 22.6215 0.0172195C16.7236 0.0172195 11.9231 4.93585 11.9231 10.9839C11.9231 15.1534 14.2103 18.7798 17.5593 20.6324C18.164 20.9603 19.0318 21.2983 19.3265 21.3908C20.2811 21.6821 21.4527 21.8759 22.4955 21.9569C22.8497 21.9842 24.0863 21.9986 24.4468 22H44V19.1005H24.4797C24.22 19.1005 23.0855 19.0904 22.8315 19.0732ZM24.4797 14.5205C24.2732 14.5205 23.1933 14.5134 22.9938 14.4961C22.6558 14.4667 22.1659 14.4151 21.8509 14.3412C21.4954 14.2436 21.1615 14.1144 21.0111 14.0297C19.9564 13.445 19.2376 12.3012 19.2376 10.9839C19.2376 9.06735 20.7514 7.51319 22.6215 7.51319C24.4524 7.51319 25.941 9.00636 26.0005 10.8719H28.7286C28.6712 7.46368 25.9613 4.717 22.6215 4.717C19.2446 4.717 16.5073 7.52252 16.5073 10.9839C16.5073 13.4249 17.8721 15.533 19.8598 16.5655C20.1656 16.7492 20.7409 16.9415 20.9047 16.9852C21.466 17.1366 22.2198 17.2399 22.8315 17.2859C23.0575 17.3052 24.1647 17.3139 24.3985 17.3153V17.3196H43.9993V14.5205H24.4797ZM10.1734 21.9892H7.31514V2.93109H3.13826V0H10.1734V21.9892ZM0 4.39555V7.21399H3.13826V21.9892H5.88458V4.39555H0Z" fill="#D91920"/>
<path d="M39.0007 2.38419e-07C37.9071 2.38419e-07 37 0.879146 37 1.98239C37 3.08563 37.9071 4 39.0007 4C40.1279 4 41 3.08563 41 1.98239C41 0.879146 40.1279 2.38419e-07 39.0007 2.38419e-07ZM39.0007 3.67472C38.0974 3.67472 37.319 2.95897 37.319 1.98239C37.319 1.05527 38.0974 0.321529 39.0007 0.321529C39.9033 0.321529 40.6781 1.05527 40.6781 1.98239C40.6781 2.95897 39.9033 3.67472 39.0007 3.67472Z" fill="#D91920"/>
<path d="M38.9488 2.54858C38.9488 2.32401 38.9275 2.11531 38.7633 2.03289C38.9691 1.92098 38.9894 1.71002 38.9894 1.58223C38.9894 1.06578 38.6899 1 38.5667 1H38V3H38.2362V2.17958H38.4222C38.6899 2.17958 38.7121 2.3724 38.7121 2.54858C38.7121 2.8896 38.7121 2.95388 38.7633 3H39C38.9488 2.91909 38.9691 2.85633 38.9488 2.54858ZM38.515 1.88771H38.2362V1.25785H38.4749C38.6401 1.25785 38.7522 1.33951 38.7522 1.58223C38.7522 1.71002 38.7121 1.88771 38.515 1.88771Z" fill="#D91920"/>
</svg>
