<svg width="115" height="24" viewBox="0 0 115 24" fill="none" xmlns="http://www.w3.org/2000/svg">
<path d="M11 22C17.0751 22 22 17.0751 22 11C22 4.92487 17.0751 0 11 0C4.92487 0 0 4.92487 0 11C0 17.0751 4.92487 22 11 22Z" fill="#FC3F1D"/>
<path d="M12.6316 6.68772H11.5895C9.64737 6.68772 8.65263 7.64561 8.65263 9.01404C8.65263 10.5649 9.36316 11.2947 10.7842 12.2526L11.9684 13.0281L8.5579 17.9544H6L9.07895 13.5754C7.32632 12.3439 6.33158 11.1579 6.33158 9.19649C6.33158 6.68772 8.13158 5 11.5895 5H15V18H12.6316V6.68772Z" fill="white"/>
<path d="M28.6242 23V19.5596H36.8134V23H39.4828V17.3119H37.9445V3H28.4432L28.217 9.83486C28.0812 13.7339 27.8098 16.0275 27.0406 17.3119H26V23H28.6242ZM30.7054 10.2018L30.8864 5.24771H35.1393V17.3119H29.71C30.2077 16.1651 30.5697 14.1009 30.7054 10.2018ZM45.5455 7.31193C42.4689 7.31193 40.3424 9.51376 40.3424 13.5505C40.3424 17.5413 42.4689 19.789 45.5455 19.789C48.6221 19.789 50.7938 17.5872 50.7938 13.5505C50.7938 9.55963 48.6221 7.31193 45.5455 7.31193ZM45.5455 17.5413C44.0072 17.5413 43.238 16.3028 43.238 13.5505C43.238 10.7523 44.0072 9.55963 45.5455 9.55963C47.0838 9.55963 47.8982 10.7523 47.8982 13.5505C47.8982 16.3486 47.129 17.5413 45.5455 17.5413ZM57.7614 19.789C59.0735 19.789 59.9784 19.5596 60.6571 19.055V16.7615C59.9332 17.2661 59.1188 17.5872 57.9424 17.5872C55.9517 17.5872 55.1373 16.0275 55.1373 13.5505C55.1373 10.9358 56.1326 9.6055 57.9877 9.6055C59.0735 9.6055 60.1141 9.97248 60.7023 10.3394V7.95413C60.1141 7.63303 59.0735 7.40367 57.671 7.40367C54.0967 7.40367 52.2416 10.0183 52.2416 13.6422C52.1964 17.5872 54.0062 19.789 57.7614 19.789ZM71.199 9.78899V7.54128H61.8334V9.78899H65.1362V19.5596H67.9414V9.78899H71.199ZM80.9717 11.3945C80.9717 8.50459 79.5239 7.40367 76.5378 7.40367C74.6828 7.40367 73.235 8 72.3753 8.50459V10.8899C73.1445 10.3394 74.7733 9.69725 76.2211 9.69725C77.5784 9.69725 78.1666 10.156 78.1666 11.4404V12.1284H77.7141C73.4159 12.1284 71.5157 13.5505 71.5157 15.9817C71.5157 18.4128 72.9635 19.789 75.1352 19.789C76.764 19.789 77.4879 19.2385 78.0308 18.6881H78.1666C78.2118 19.0092 78.3023 19.422 78.3928 19.6514H81.1075C81.017 18.6881 80.9717 17.6789 80.9717 16.7156V11.3945ZM78.2118 16.7156C77.8499 17.2202 77.2165 17.6789 76.2211 17.6789C75.0447 17.6789 74.4566 16.945 74.4566 15.8899C74.4566 14.4679 75.4067 13.9633 77.8046 13.9633H78.2118V16.7156ZM87.8941 19.5596C90.654 19.5596 92.328 18.367 92.328 16.0734C92.328 14.5138 91.3779 13.5963 89.7943 13.3211C91.0612 12.9541 91.8756 12.0367 91.8756 10.6147C91.8756 8.55046 90.5183 7.54128 87.9393 7.54128H83.2339V19.5596H87.8941ZM87.5321 9.69725C88.5275 9.69725 89.1157 10.1101 89.1157 11.0275C89.1157 11.8532 88.5275 12.3578 87.4416 12.3578H86.0391V9.69725H87.5321ZM87.6226 14.4679C88.799 14.4679 89.4324 14.8807 89.4324 15.8899C89.4324 16.9908 88.7085 17.4037 87.6226 17.4037H86.0843V14.4679H87.6226ZM101.151 19.5596H104.318L99.8386 13.0917L103.775 7.54128H100.97L97.0334 13.0917V7.54128H94.2283V19.5596H97.0334V13.6422L101.151 19.5596ZM113.864 11.3945C113.864 8.50459 112.416 7.40367 109.43 7.40367C107.575 7.40367 106.128 8 105.268 8.50459V10.8899C106.037 10.3394 107.666 9.69725 109.114 9.69725C110.471 9.69725 111.059 10.156 111.059 11.4404V12.1284H110.607C106.308 12.1284 104.408 13.5505 104.408 15.9817C104.408 18.4128 105.856 19.789 108.028 19.789C109.657 19.789 110.38 19.2385 110.923 18.6881H111.059C111.104 19.0092 111.195 19.422 111.285 19.6514H114C113.91 18.6881 113.864 17.6789 113.864 16.7156V11.3945ZM111.059 16.7156C110.697 17.2202 110.064 17.6789 109.068 17.6789C107.892 17.6789 107.304 16.945 107.304 15.8899C107.304 14.4679 108.254 13.9633 110.652 13.9633H111.059V16.7156Z" fill="black"/>
</svg>
