<svg width="93" height="93" viewBox="0 0 93 93" fill="none" xmlns="http://www.w3.org/2000/svg">
<path fill-rule="evenodd" clip-rule="evenodd" d="M83.5776 12.2427L23.5112 1.65138C18.3438 0.740229 13.4144 4.18923 12.4956 9.35869L1.91307 69.3754C1.46367 71.8657 2.0239 74.4322 3.46999 76.5078C4.91607 78.5833 7.12892 79.9969 9.61931 80.436L69.6857 91.0273C72.1745 91.4627 74.7344 90.8892 76.8003 89.4333C78.8663 87.9774 80.2685 85.7588 80.6975 83.2673L91.2801 23.2505C92.1839 18.0835 88.7388 13.1599 83.5776 12.2427ZM38.1176 62.7368C37.9674 63.5691 37.4921 64.3074 36.7967 64.7884C36.1014 65.2694 35.2433 65.4535 34.4121 65.3001L21.2856 62.9855C19.57 62.6757 18.4278 61.0364 18.7307 59.3184L25.6232 20.2292C25.9261 18.5112 27.5601 17.3613 29.2782 17.6571L42.4047 19.9717C44.1224 20.2817 45.2686 21.9197 44.9722 23.6409L38.1176 62.7368ZM71.5741 50.1312C71.427 50.9651 70.9525 51.7056 70.2563 52.1872C69.5601 52.6688 68.7002 52.8514 67.8685 52.6946L54.742 50.38C53.0244 50.0698 51.8782 48.4317 52.1746 46.7105L55.9025 25.5683C56.2127 23.8495 57.85 22.7022 59.5702 22.9984L72.6967 25.313C74.4123 25.6226 75.5545 27.262 75.2515 28.98L71.5741 50.1312Z" fill="url(#paint0_linear_12_1138)"/>
<defs>
<linearGradient id="paint0_linear_12_1138" x1="11427.3" y1="7211.43" x2="12316.4" y2="2169.21" gradientUnits="userSpaceOnUse">
<stop stop-color="#0052CC"/>
<stop offset="1" stop-color="#2684FF"/>
</linearGradient>
</defs>
</svg>
